<svg width="55" height="47" xmlns="http://www.w3.org/2000/svg" xmlns:xlink="http://www.w3.org/1999/xlink" xml:space="preserve" overflow="hidden"><defs><filter id="fx0" x="-10%" y="-10%" width="120%" height="120%" filterUnits="userSpaceOnUse" primitiveUnits="userSpaceOnUse"><feComponentTransfer color-interpolation-filters="sRGB"><feFuncR type="discrete" tableValues="0 0"/><feFuncG type="discrete" tableValues="0 0"/><feFuncB type="discrete" tableValues="0 0"/><feFuncA type="linear" slope="0.4" intercept="0"/></feComponentTransfer><feGaussianBlur stdDeviation="2.22222 2.22222"/></filter><clipPath id="clip1"><rect x="1071" y="403" width="55" height="47"/></clipPath><clipPath id="clip2"><rect x="-4" y="-4" width="62" height="57"/></clipPath><clipPath id="clip3"><rect x="0" y="0" width="55" height="49"/></clipPath><clipPath id="clip4"><rect x="7" y="7" width="41" height="35"/></clipPath><clipPath id="clip5"><rect x="7" y="7" width="41" height="35"/></clipPath><clipPath id="clip6"><rect x="7" y="7" width="41" height="35"/></clipPath><clipPath id="clip7"><rect x="1079" y="410" width="39" height="33"/></clipPath><clipPath id="clip8"><rect x="1079" y="410" width="39" height="33"/></clipPath><clipPath id="clip9"><rect x="1079" y="410" width="39" height="33"/></clipPath></defs><g clip-path="url(#clip1)" transform="translate(-1071 -403)"><g clip-path="url(#clip2)" filter="url(#fx0)" transform="translate(1071 402)"><g clip-path="url(#clip3)"><g clip-path="url(#clip4)"><g clip-path="url(#clip5)"><g clip-path="url(#clip6)"><path d="M722.836 617.98C722.537 617.986 722.246 617.885 722.017 617.693 719.723 615.793 717.643 614.974 715.841 615.277 714.562 615.533 713.435 616.284 712.704 617.365 712.343 617.956 711.571 618.141 710.981 617.78 710.931 617.749 710.882 617.714 710.836 617.677 708.551 615.768 706.471 614.957 704.661 615.22 703.374 615.486 702.241 616.24 701.499 617.325 701.309 617.637 700.991 617.849 700.631 617.906 700.266 617.971 699.892 617.865 699.615 617.619 697.06 615.392 694.513 614.671 692.039 615.506 690.86 615.922 689.795 616.606 688.927 617.505 688.474 618.025 687.686 618.08 687.166 617.628 686.646 617.175 686.591 616.387 687.043 615.867 688.706 614.059 690.978 612.928 693.423 612.689 695.896 612.571 698.326 613.364 700.254 614.917 701.316 613.785 702.715 613.025 704.243 612.754 706.504 612.361 708.92 613.098 711.434 614.933 712.489 613.81 713.875 613.052 715.39 612.771 717.946 612.336 720.714 613.319 723.581 615.719 724.11 616.158 724.184 616.943 723.745 617.472 723.503 617.764 723.141 617.93 722.762 617.922Z" fill="#FFFFFF" transform="matrix(1.03095 0 0 1 -700.417 -576.669)"/><path d="M717.888 589.337C717.888 586.587 715.659 584.357 712.909 584.357 710.158 584.357 707.929 586.587 707.929 589.337L706.684 589.337C706.684 586.587 704.454 584.357 701.704 584.357 698.954 584.357 696.724 586.587 696.724 589.337L688.009 589.337 688.009 605.522 699.083 605.522 699.083 589.337 699.214 589.337C699.214 587.962 700.329 586.847 701.704 586.847 703.079 586.847 704.194 587.962 704.194 589.337L701.573 589.337 701.573 593.072 706.684 593.072 706.684 595.529 701.573 595.529 701.573 597.987 706.684 597.987 706.684 600.444 701.573 600.444 701.573 605.424 710.419 605.424 710.419 589.337C710.419 587.962 711.533 586.847 712.909 586.847 714.284 586.847 715.399 587.962 715.399 589.337L712.941 589.337 712.941 605.522 725.383 605.522 725.383 589.337Z" fill="#FFFFFF" transform="matrix(1.03095 0 0 1 -700.417 -576.669)"/><path d="M722.836 613C722.537 613.006 722.246 612.905 722.017 612.713 719.723 610.813 717.643 610.002 715.841 610.256 714.562 610.512 713.435 611.263 712.704 612.345 712.525 612.645 712.227 612.856 711.885 612.926 711.525 612.992 711.155 612.893 710.877 612.656 708.592 610.747 706.512 609.937 704.702 610.24 703.415 610.506 702.282 611.26 701.54 612.345 701.192 612.932 700.433 613.126 699.845 612.777 699.778 612.738 699.715 612.691 699.656 612.639 697.101 610.412 694.554 609.691 692.08 610.526 690.899 610.94 689.832 611.628 688.968 612.533 688.515 613.053 687.727 613.108 687.207 612.656 686.687 612.204 686.632 611.415 687.084 610.895 688.743 609.081 691.017 607.945 693.464 607.709 695.937 607.592 698.367 608.384 700.295 609.937 701.359 608.807 702.757 608.049 704.284 607.774 706.545 607.381 708.961 608.118 711.475 609.953 712.53 608.83 713.916 608.072 715.431 607.791 717.987 607.357 720.755 608.339 723.622 610.739 724.15 611.172 724.229 611.951 723.796 612.48 723.792 612.484 723.789 612.488 723.786 612.492 723.565 612.799 723.214 612.987 722.836 613Z" fill="#FFFFFF" transform="matrix(1.03095 0 0 1 -700.417 -576.669)"/></g></g></g></g></g><g clip-path="url(#clip7)"><g clip-path="url(#clip8)"><g clip-path="url(#clip9)"><path d="M708.662 605.862C708.369 605.869 708.084 605.769 707.859 605.581 705.611 603.719 703.571 602.916 701.805 603.213 700.551 603.464 699.446 604.2 698.729 605.26 698.375 605.839 697.619 606.021 697.04 605.667 696.991 605.636 696.943 605.602 696.898 605.565 694.658 603.694 692.618 602.899 690.844 603.156 689.582 603.417 688.472 604.157 687.744 605.22 687.558 605.526 687.246 605.734 686.893 605.79 686.536 605.854 686.169 605.75 685.897 605.509 683.392 603.325 680.895 602.618 678.47 603.437 677.314 603.845 676.269 604.516 675.418 605.397 674.975 605.907 674.202 605.96 673.692 605.517 673.182 605.074 673.128 604.301 673.571 603.791 675.202 602.019 677.43 600.91 679.827 600.675 682.251 600.56 684.633 601.338 686.524 602.859 687.564 601.75 688.936 601.005 690.434 600.739 692.651 600.354 695.019 601.077 697.485 602.875 698.519 601.774 699.878 601.032 701.363 600.755 703.868 600.33 706.583 601.293 709.393 603.646 709.912 604.077 709.984 604.846 709.554 605.365 709.317 605.651 708.962 605.814 708.59 605.806Z" fill="#FFFFFF" transform="matrix(1.03095 0 0 1 384.856 -162.881)"/><path d="M703.812 577.782C703.812 575.085 701.627 572.899 698.93 572.899 696.234 572.899 694.048 575.085 694.048 577.782L692.827 577.782C692.827 575.085 690.641 572.899 687.945 572.899 685.249 572.899 683.063 575.085 683.063 577.782L674.519 577.782 674.519 593.649 685.375 593.649 685.375 577.782 685.504 577.782C685.504 576.433 686.597 575.341 687.945 575.341 689.293 575.341 690.386 576.433 690.386 577.782L687.817 577.782 687.817 581.443 692.827 581.443 692.827 583.852 687.817 583.852 687.817 586.261 692.827 586.261 692.827 588.67 687.817 588.67 687.817 593.552 696.489 593.552 696.489 577.782C696.489 576.433 697.582 575.341 698.93 575.341 700.278 575.341 701.371 576.433 701.371 577.782L698.962 577.782 698.962 593.649 711.16 593.649 711.16 577.782Z" fill="#FFFFFF" transform="matrix(1.03095 0 0 1 384.856 -162.881)"/><path d="M708.662 600.98C708.369 600.987 708.084 600.887 707.859 600.699 705.611 598.836 703.571 598.041 701.805 598.29 700.551 598.542 699.446 599.278 698.729 600.338 698.553 600.633 698.262 600.839 697.926 600.908 697.574 600.973 697.211 600.876 696.939 600.643 694.698 598.772 692.659 597.977 690.884 598.274 689.622 598.535 688.512 599.275 687.784 600.338 687.443 600.914 686.699 601.104 686.123 600.762 686.057 600.723 685.995 600.678 685.938 600.627 683.432 598.443 680.935 597.736 678.51 598.555 677.352 598.961 676.306 599.635 675.458 600.523 675.015 601.032 674.242 601.086 673.732 600.643 673.222 600.2 673.168 599.426 673.612 598.917 675.238 597.138 677.467 596.025 679.867 595.793 682.291 595.678 684.674 596.455 686.564 597.977 687.607 596.87 688.978 596.126 690.474 595.857 692.691 595.472 695.06 596.194 697.525 597.993 698.559 596.892 699.918 596.149 701.403 595.873 703.909 595.448 706.623 596.411 709.433 598.764 709.951 599.188 710.028 599.952 709.604 600.47 709.6 600.474 709.597 600.478 709.594 600.482 709.377 600.784 709.033 600.967 708.662 600.98Z" fill="#FFFFFF" transform="matrix(1.03095 0 0 1 384.856 -162.881)"/></g></g></g></g></svg>