<svg width="43" height="45" xmlns="http://www.w3.org/2000/svg" xmlns:xlink="http://www.w3.org/1999/xlink" xml:space="preserve" overflow="hidden"><defs><filter id="fx0" x="-10%" y="-10%" width="120%" height="120%" filterUnits="userSpaceOnUse" primitiveUnits="userSpaceOnUse"><feComponentTransfer color-interpolation-filters="sRGB"><feFuncR type="discrete" tableValues="0 0"/><feFuncG type="discrete" tableValues="0 0"/><feFuncB type="discrete" tableValues="0 0"/><feFuncA type="linear" slope="0.4" intercept="0"/></feComponentTransfer><feGaussianBlur stdDeviation="2.22222 2.22222"/></filter><clipPath id="clip1"><rect x="1147" y="628" width="43" height="45"/></clipPath><clipPath id="clip2"><rect x="-4" y="1" width="51" height="50"/></clipPath><clipPath id="clip3"><rect x="0" y="0" width="45" height="47"/></clipPath><clipPath id="clip4"><rect x="7" y="7" width="31" height="33"/></clipPath><clipPath id="clip5"><rect x="7" y="11" width="31" height="29"/></clipPath><clipPath id="clip6"><rect x="7" y="11" width="31" height="36"/></clipPath><clipPath id="clip7"><rect x="1154" y="635" width="29" height="31"/></clipPath><clipPath id="clip8"><rect x="1154" y="638" width="29" height="28"/></clipPath><clipPath id="clip9"><rect x="1154" y="638" width="29" height="36"/></clipPath></defs><g clip-path="url(#clip1)" transform="translate(-1147 -628)"><g clip-path="url(#clip2)" filter="url(#fx0)" transform="translate(1146 627)"><g clip-path="url(#clip3)"><g clip-path="url(#clip4)"><g clip-path="url(#clip5)"><g clip-path="url(#clip6)"><path d="M14.2295 1.42295C7.15662 1.42295 1.42295 7.15662 1.42295 14.2295 1.42295 21.3023 7.15662 27.036 14.2295 27.036 21.3023 27.036 27.036 21.3023 27.036 14.2295 27.036 7.15662 21.3023 1.42295 14.2295 1.42295ZM16.3752 20.2274C15.648 21.2531 14.92 21.9568 14.137 22.3502 13.5698 22.6273 12.9433 22.7612 12.3124 22.7404 10.658 22.6035 9.88931 21.3566 10.6112 19.3732L12.7862 13.3973C13.2556 12.1077 12.8007 11.7155 12.4284 11.7053 11.9854 11.6972 11.4557 12.1123 10.8395 12.9507 10.7341 13.0981 10.5292 13.1323 10.3818 13.0269 10.2351 12.9221 10.2004 12.7185 10.3042 12.5711 11.0314 11.5454 11.7594 10.8418 12.5424 10.4484 13.1096 10.1713 13.7361 10.0373 14.367 10.0582 16.0214 10.1951 16.7901 11.442 16.0682 13.4254L13.8932 19.4013C13.4238 20.6909 13.8787 21.0831 14.251 21.0932 14.694 21.1014 15.2236 20.6863 15.8399 19.8479 15.9453 19.7004 16.1502 19.6663 16.2976 19.7717 16.4443 19.8765 16.4789 20.08 16.3752 20.2274ZM18.12 7.7881C17.8278 8.59084 16.9402 9.00475 16.1374 8.71256 15.3347 8.42034 14.9208 7.53274 15.213 6.72997 15.5052 5.92723 16.3928 5.51335 17.1955 5.80554 17.9983 6.09767 18.4122 6.98527 18.12 7.78801 18.12 7.78804 18.12 7.78807 18.12 7.7881Z" fill="#FFFFFF" transform="matrix(1.03939 0 0 1 7.70996 11.0254)"/><path d="M2.65381-1.31592 3.35449-1.09375C3.24707-0.703125 3.06844-0.413005 2.8186-0.223389 2.56877-0.0337728 2.25179 0.0610352 1.86768 0.0610352 1.39242 0.0610352 1.00179-0.101318 0.695801-0.426025 0.389811-0.750732 0.236816-1.19466 0.236816-1.75781 0.236816-2.35352 0.390625-2.81616 0.698242-3.14575 1.00586-3.47534 1.41032-3.64014 1.91162-3.64014 2.34945-3.64014 2.70508-3.51074 2.97852-3.25195 3.14128-3.09896 3.26335-2.87923 3.34473-2.59277L2.62939-2.42188C2.58708-2.60742 2.49878-2.75391 2.3645-2.86133 2.23022-2.96875 2.06706-3.02246 1.875-3.02246 1.6097-3.02246 1.39445-2.92725 1.22925-2.73682 1.06405-2.54639 0.981445-2.23796 0.981445-1.81152 0.981445-1.35905 1.06283-1.03678 1.22559-0.844727 1.38835-0.652669 1.59993-0.556641 1.86035-0.556641 2.05241-0.556641 2.21761-0.617676 2.35596-0.739746 2.4943-0.861816 2.59359-1.05387 2.65381-1.31592ZM5.01562 0 4.32959 0 4.32959-2.59277 4.9668-2.59277 4.9668-2.22412C5.07585-2.39827 5.17391-2.51302 5.26099-2.56836 5.34806-2.6237 5.44694-2.65137 5.55762-2.65137 5.71387-2.65137 5.86442-2.60824 6.00928-2.52197L5.79688-1.92383C5.68131-1.9987 5.57389-2.03613 5.47461-2.03613 5.37858-2.03613 5.2972-2.00968 5.23047-1.95679 5.16374-1.90389 5.11125-1.80827 5.073-1.66992 5.03475-1.53158 5.01562-1.24186 5.01562-0.800781ZM7.86035-0.825195 8.54395-0.710449C8.45605-0.459798 8.3173-0.268962 8.12769-0.137939 7.93807-0.00691732 7.70085 0.0585937 7.41602 0.0585938 6.96517 0.0585937 6.63151-0.0887044 6.41504-0.383301 6.24414-0.619303 6.15869-0.917155 6.15869-1.27686 6.15869-1.70654 6.271-2.04305 6.49561-2.28638 6.72021-2.5297 7.00423-2.65137 7.34766-2.65137 7.7334-2.65137 8.03776-2.52401 8.26074-2.26929 8.48372-2.01457 8.59033-1.62435 8.58057-1.09863L6.86182-1.09863C6.8667-0.895182 6.92204-0.736898 7.02783-0.623779 7.13363-0.510661 7.26546-0.454102 7.42334-0.454102 7.53076-0.454102 7.62109-0.483398 7.69434-0.541992 7.76758-0.600586 7.82292-0.694987 7.86035-0.825195ZM7.89941-1.51855C7.89453-1.71712 7.84326-1.86808 7.74561-1.97144 7.64795-2.07479 7.52913-2.12646 7.38916-2.12646 7.23942-2.12646 7.11572-2.07194 7.01807-1.96289 6.92041-1.85384 6.8724-1.70573 6.87402-1.51855ZM9.87158-1.80176 9.24902-1.91406C9.31901-2.16471 9.43945-2.35026 9.61035-2.4707 9.78125-2.59115 10.0352-2.65137 10.3721-2.65137 10.6781-2.65137 10.9059-2.61515 11.0557-2.54272 11.2054-2.4703 11.3108-2.37834 11.3718-2.26685 11.4329-2.15535 11.4634-1.95068 11.4634-1.65283L11.4561-0.852051C11.4561-0.624186 11.467-0.456136 11.489-0.3479 11.511-0.239665 11.5521-0.123698 11.6123 0L10.9336 0C10.9157-0.0455729 10.8937-0.113118 10.8677-0.202637 10.8563-0.243327 10.8481-0.270182 10.8433-0.283203 10.7261-0.169271 10.6007-0.0838216 10.4673-0.0268555 10.3338 0.0301107 10.1914 0.0585937 10.04 0.0585938 9.77311 0.0585937 9.56274-0.0138346 9.40894-0.158691 9.25513-0.303548 9.17822-0.486654 9.17822-0.708008 9.17822-0.854492 9.21322-0.985107 9.2832-1.09985 9.35319-1.2146 9.45125-1.30249 9.57739-1.36353 9.70353-1.42456 9.88542-1.47786 10.123-1.52344 10.4437-1.58366 10.6659-1.63981 10.7896-1.69189L10.7896-1.76025C10.7896-1.89209 10.757-1.98608 10.6919-2.04224 10.6268-2.09839 10.5039-2.12646 10.3232-2.12646 10.2012-2.12646 10.106-2.10246 10.0376-2.05444 9.96924-2.00643 9.9139-1.9222 9.87158-1.80176ZM10.7896-1.24512C10.7017-1.21582 10.5625-1.18083 10.3721-1.14014 10.1816-1.09945 10.0571-1.05957 9.99854-1.02051 9.90902-0.957031 9.86426-0.876465 9.86426-0.778809 9.86426-0.68278 9.90006-0.599772 9.97168-0.529785 10.0433-0.459798 10.1344-0.424805 10.2451-0.424805 10.3688-0.424805 10.4868-0.465495 10.5991-0.546875 10.6821-0.608724 10.7367-0.684408 10.7627-0.773926 10.7806-0.83252 10.7896-0.94401 10.7896-1.1084ZM13.5479-2.59277 13.5479-2.0459 13.0791-2.0459 13.0791-1.00098C13.0791-0.789388 13.0836-0.666097 13.0925-0.631104 13.1015-0.59611 13.1218-0.56722 13.1536-0.544434 13.1853-0.521647 13.224-0.510254 13.2695-0.510254 13.333-0.510254 13.425-0.532227 13.5454-0.576172L13.604-0.0439453C13.4445 0.0244141 13.2638 0.0585937 13.062 0.0585938 12.9383 0.0585937 12.8268 0.0378418 12.7275-0.00366211 12.6283-0.045166 12.5554-0.098877 12.509-0.164795 12.4626-0.230713 12.4305-0.319824 12.4126-0.432129 12.3979-0.511881 12.3906-0.673014 12.3906-0.915527L12.3906-2.0459 12.0757-2.0459 12.0757-2.59277 12.3906-2.59277 12.3906-3.10791 13.0791-3.5083 13.0791-2.59277ZM15.8604-0.825195 16.5439-0.710449C16.4561-0.459798 16.3173-0.268962 16.1277-0.137939 15.9381-0.00691732 15.7008 0.0585937 15.416 0.0585938 14.9652 0.0585937 14.6315-0.0887044 14.415-0.383301 14.2441-0.619303 14.1587-0.917155 14.1587-1.27686 14.1587-1.70654 14.271-2.04305 14.4956-2.28638 14.7202-2.5297 15.0042-2.65137 15.3477-2.65137 15.7334-2.65137 16.0378-2.52401 16.2607-2.26929 16.4837-2.01457 16.5903-1.62435 16.5806-1.09863L14.8618-1.09863C14.8667-0.895182 14.922-0.736898 15.0278-0.623779 15.1336-0.510661 15.2655-0.454102 15.4233-0.454102 15.5308-0.454102 15.6211-0.483398 15.6943-0.541992 15.7676-0.600586 15.8229-0.694987 15.8604-0.825195ZM15.8994-1.51855C15.8945-1.71712 15.8433-1.86808 15.7456-1.97144 15.6479-2.07479 15.5291-2.12646 15.3892-2.12646 15.2394-2.12646 15.1157-2.07194 15.0181-1.96289 14.9204-1.85384 14.8724-1.70573 14.874-1.51855ZM19.7368 0 19.0996 0 19.0996-0.380859C18.9938-0.232747 18.8689-0.122477 18.7249-0.0500488 18.5808 0.0223796 18.4355 0.0585937 18.2891 0.0585938 17.9912 0.0585937 17.7361-0.0614421 17.5237-0.301514 17.3113-0.541585 17.2051-0.876465 17.2051-1.30615 17.2051-1.74561 17.3084-2.07967 17.5151-2.30835 17.7218-2.53703 17.9831-2.65137 18.2988-2.65137 18.5885-2.65137 18.8392-2.53092 19.0508-2.29004L19.0508-3.5791 19.7368-3.5791ZM17.9058-1.35254C17.9058-1.07585 17.944-0.875651 18.0205-0.751953 18.1312-0.572917 18.2858-0.483398 18.4844-0.483398 18.6423-0.483398 18.7765-0.550537 18.8872-0.684814 18.9979-0.819092 19.0532-1.01969 19.0532-1.28662 19.0532-1.58447 18.9995-1.79891 18.8921-1.92993 18.7847-2.06095 18.6471-2.12646 18.4795-2.12646 18.3167-2.12646 18.1804-2.06177 18.0706-1.93237 17.9607-1.80298 17.9058-1.6097 17.9058-1.35254ZM21.3296 0 21.3296-3.5791 22.0156-3.5791 22.0156-2.29004C22.2272-2.53092 22.4779-2.65137 22.7676-2.65137 23.0833-2.65137 23.3446-2.53703 23.5513-2.30835 23.758-2.07967 23.8613-1.7513 23.8613-1.32324 23.8613-0.880534 23.7559-0.539551 23.5452-0.300293 23.3344-0.0610352 23.0784 0.0585937 22.7773 0.0585938 22.6292 0.0585937 22.4832 0.0215658 22.3391-0.0524902 22.1951-0.126546 22.071-0.236003 21.9668-0.380859L21.9668 0ZM22.0107-1.35254C22.0107-1.08398 22.0531-0.885417 22.1377-0.756836 22.2565-0.574544 22.4144-0.483398 22.6113-0.483398 22.7627-0.483398 22.8917-0.548096 22.9983-0.67749 23.1049-0.806885 23.1582-1.01074 23.1582-1.28906 23.1582-1.58529 23.1045-1.79891 22.9971-1.92993 22.8896-2.06095 22.7521-2.12646 22.5845-2.12646 22.4201-2.12646 22.2834-2.06258 22.1743-1.93481 22.0653-1.80705 22.0107-1.61296 22.0107-1.35254ZM24.0342-2.59277 24.7642-2.59277 25.3843-0.751953 25.9897-2.59277 26.7002-2.59277 25.7847-0.0976562 25.6211 0.354004C25.5609 0.505371 25.5035 0.620931 25.449 0.700684 25.3944 0.780436 25.3318 0.845133 25.261 0.894775 25.1902 0.944417 25.1031 0.983073 24.9998 1.01074 24.8964 1.03841 24.7796 1.05225 24.6494 1.05225 24.5176 1.05225 24.3882 1.03841 24.2612 1.01074L24.2002 0.473633C24.3076 0.494792 24.4045 0.505371 24.4907 0.505371 24.6502 0.505371 24.7682 0.458577 24.8447 0.36499 24.9212 0.271403 24.9798 0.152181 25.0205 0.00732422ZM28.354 0 28.354-3.5791 29.4355-3.5791 30.085-1.1377 30.7271-3.5791 31.811-3.5791 31.811 0 31.1396 0 31.1396-2.81738 30.4292 0 29.7334 0 29.0254-2.81738 29.0254 0ZM32.8716-1.80176 32.249-1.91406C32.319-2.16471 32.4395-2.35026 32.6104-2.4707 32.7812-2.59115 33.0352-2.65137 33.3721-2.65137 33.6781-2.65137 33.9059-2.61515 34.0557-2.54272 34.2054-2.4703 34.3108-2.37834 34.3718-2.26685 34.4329-2.15535 34.4634-1.95068 34.4634-1.65283L34.4561-0.852051C34.4561-0.624186 34.467-0.456136 34.489-0.3479 34.511-0.239665 34.5521-0.123698 34.6123 0L33.9336 0C33.9157-0.0455729 33.8937-0.113118 33.8677-0.202637 33.8563-0.243327 33.8481-0.270182 33.8433-0.283203 33.7261-0.169271 33.6007-0.0838216 33.4673-0.0268555 33.3338 0.0301107 33.1914 0.0585937 33.04 0.0585938 32.7731 0.0585937 32.5627-0.0138346 32.4089-0.158691 32.2551-0.303548 32.1782-0.486654 32.1782-0.708008 32.1782-0.854492 32.2132-0.985107 32.2832-1.09985 32.3532-1.2146 32.4513-1.30249 32.5774-1.36353 32.7035-1.42456 32.8854-1.47786 33.123-1.52344 33.4437-1.58366 33.6659-1.63981 33.7896-1.69189L33.7896-1.76025C33.7896-1.89209 33.757-1.98608 33.6919-2.04224 33.6268-2.09839 33.5039-2.12646 33.3232-2.12646 33.2012-2.12646 33.106-2.10246 33.0376-2.05444 32.9692-2.00643 32.9139-1.9222 32.8716-1.80176ZM33.7896-1.24512C33.7017-1.21582 33.5625-1.18083 33.3721-1.14014 33.1816-1.09945 33.0571-1.05957 32.9985-1.02051 32.909-0.957031 32.8643-0.876465 32.8643-0.778809 32.8643-0.68278 32.9001-0.599772 32.9717-0.529785 33.0433-0.459798 33.1344-0.424805 33.2451-0.424805 33.3688-0.424805 33.4868-0.465495 33.5991-0.546875 33.6821-0.608724 33.7367-0.684408 33.7627-0.773926 33.7806-0.83252 33.7896-0.94401 33.7896-1.1084ZM36.0156 0 35.3296 0 35.3296-2.59277 35.9668-2.59277 35.9668-2.22412C36.0758-2.39827 36.1739-2.51302 36.261-2.56836 36.3481-2.6237 36.4469-2.65137 36.5576-2.65137 36.7139-2.65137 36.8644-2.60824 37.0093-2.52197L36.7969-1.92383C36.6813-1.9987 36.5739-2.03613 36.4746-2.03613 36.3786-2.03613 36.2972-2.00968 36.2305-1.95679 36.1637-1.90389 36.1112-1.80827 36.073-1.66992 36.0347-1.53158 36.0156-1.24186 36.0156-0.800781ZM37.3345 0 37.3345-3.5791 38.0205-3.5791 38.0205-1.67969 38.8237-2.59277 39.6685-2.59277 38.7822-1.64551 39.7319 0 38.9922 0 38.3403-1.16455 38.0205-0.830078 38.0205 0ZM42.0654 0 42.0654-0.388184C41.971-0.249837 41.8469-0.140788 41.6931-0.0610352 41.5393 0.0187174 41.377 0.0585937 41.2061 0.0585938 41.0319 0.0585937 40.8756 0.020345 40.7373-0.0561523 40.599-0.13265 40.4989-0.240072 40.437-0.378418 40.3752-0.516764 40.3442-0.708008 40.3442-0.952148L40.3442-2.59277 41.0303-2.59277 41.0303-1.40137C41.0303-1.03678 41.0429-0.813395 41.0681-0.731201 41.0933-0.649007 41.1393-0.583903 41.2061-0.535889 41.2728-0.487874 41.3574-0.463867 41.46-0.463867 41.5771-0.463867 41.6821-0.496012 41.7749-0.560303 41.8677-0.624593 41.9312-0.704346 41.9653-0.799561 41.9995-0.894775 42.0166-1.12793 42.0166-1.49902L42.0166-2.59277 42.7026-2.59277 42.7026 0ZM43.1172-0.739746 43.8057-0.844727C43.835-0.711263 43.8944-0.609945 43.9839-0.540771 44.0734-0.471598 44.1987-0.437012 44.3599-0.437012 44.5373-0.437012 44.6707-0.469564 44.7603-0.534668 44.8205-0.580241 44.8506-0.641276 44.8506-0.717773 44.8506-0.769857 44.8343-0.812988 44.8018-0.847168 44.7676-0.87972 44.6911-0.909831 44.5723-0.9375 44.0189-1.05957 43.6681-1.17106 43.52-1.27197 43.3149-1.41195 43.2124-1.60645 43.2124-1.85547 43.2124-2.08008 43.3011-2.26888 43.4785-2.42188 43.6559-2.57487 43.931-2.65137 44.3037-2.65137 44.6585-2.65137 44.9222-2.59359 45.0947-2.47803 45.2673-2.36247 45.3861-2.19157 45.4512-1.96533L44.8042-1.8457C44.7765-1.94661 44.724-2.02393 44.6467-2.07764 44.5694-2.13135 44.4591-2.1582 44.3159-2.1582 44.1353-2.1582 44.0059-2.13298 43.9277-2.08252 43.8756-2.04671 43.8496-2.00033 43.8496-1.94336 43.8496-1.89453 43.8724-1.85303 43.918-1.81885 43.9798-1.77327 44.1934-1.70898 44.5588-1.62598 44.9242-1.54297 45.1794-1.44124 45.3242-1.3208 45.4674-1.19873 45.5391-1.02865 45.5391-0.810547 45.5391-0.572917 45.4398-0.368652 45.2412-0.197754 45.0426-0.0268555 44.7489 0.0585937 44.3599 0.0585938 44.0067 0.0585937 43.7271-0.0130208 43.5212-0.15625 43.3153-0.299479 43.1807-0.493978 43.1172-0.739746Z" fill="#FFFFFF" transform="matrix(0.2958 0 0 0.284589 7.70996 44)"/><path d="M0.0585938-2.59277 0.439453-2.59277 0.439453-2.78809C0.439453-3.00618 0.462646-3.16895 0.509033-3.27637 0.55542-3.38379 0.640869-3.47127 0.765381-3.53882 0.889893-3.60636 1.04736-3.64014 1.23779-3.64014 1.43311-3.64014 1.62435-3.61084 1.81152-3.55225L1.71875-3.07373C1.6097-3.09977 1.50472-3.11279 1.40381-3.11279 1.30452-3.11279 1.23332-3.0896 1.19019-3.04321 1.14705-2.99683 1.12549-2.90771 1.12549-2.77588L1.12549-2.59277 1.63818-2.59277 1.63818-2.05322 1.12549-2.05322 1.12549 0 0.439453 0 0.439453-2.05322 0.0585938-2.05322ZM3.01562 0 2.32959 0 2.32959-2.59277 2.9668-2.59277 2.9668-2.22412C3.07585-2.39827 3.17391-2.51302 3.26099-2.56836 3.34806-2.6237 3.44694-2.65137 3.55762-2.65137 3.71387-2.65137 3.86442-2.60824 4.00928-2.52197L3.79688-1.92383C3.68131-1.9987 3.57389-2.03613 3.47461-2.03613 3.37858-2.03613 3.2972-2.00968 3.23047-1.95679 3.16374-1.90389 3.11125-1.80827 3.073-1.66992 3.03475-1.53158 3.01562-1.24186 3.01562-0.800781ZM4.2002-1.33301C4.2002-1.56087 4.25635-1.78141 4.36865-1.99463 4.48096-2.20784 4.64006-2.37061 4.84595-2.48291 5.05184-2.59521 5.28174-2.65137 5.53564-2.65137 5.9279-2.65137 6.24935-2.52401 6.5-2.26929 6.75065-2.01457 6.87598-1.69271 6.87598-1.30371 6.87598-0.911458 6.74943-0.586344 6.49634-0.328369 6.24325-0.0703939 5.92464 0.0585937 5.54053 0.0585938 5.3029 0.0585937 5.07625 0.00488281 4.8606-0.102539 4.64494-0.209961 4.48096-0.367432 4.36865-0.574951 4.25635-0.782471 4.2002-1.03516 4.2002-1.33301ZM4.90332-1.29639C4.90332-1.03923 4.96436-0.842285 5.08643-0.705566 5.2085-0.568848 5.35905-0.500488 5.53809-0.500488 5.71712-0.500488 5.86727-0.568848 5.98853-0.705566 6.10978-0.842285 6.17041-1.04085 6.17041-1.30127 6.17041-1.55518 6.10978-1.75049 5.98853-1.88721 5.86727-2.02393 5.71712-2.09229 5.53809-2.09229 5.35905-2.09229 5.2085-2.02393 5.08643-1.88721 4.96436-1.75049 4.90332-1.55355 4.90332-1.29639ZM7.30762-2.59277 7.93994-2.59277 7.93994-2.23877C8.16618-2.51383 8.43555-2.65137 8.74805-2.65137 8.91406-2.65137 9.05811-2.61719 9.18018-2.54883 9.30225-2.48047 9.40234-2.37712 9.48047-2.23877 9.5944-2.37712 9.71729-2.48047 9.84912-2.54883 9.98096-2.61719 10.1217-2.65137 10.2715-2.65137 10.4619-2.65137 10.623-2.61271 10.7549-2.5354 10.8867-2.45809 10.9852-2.34456 11.0503-2.19482 11.0975-2.08415 11.1211-1.90511 11.1211-1.65771L11.1211 0 10.4351 0 10.4351-1.48193C10.4351-1.73909 10.4115-1.90511 10.3643-1.97998 10.3008-2.07764 10.2031-2.12646 10.0713-2.12646 9.97526-2.12646 9.88493-2.09717 9.80029-2.03857 9.71566-1.97998 9.65462-1.89412 9.61719-1.78101 9.57975-1.66789 9.56104-1.48926 9.56104-1.24512L9.56104 0 8.875 0 8.875-1.4209C8.875-1.67318 8.86279-1.83594 8.83838-1.90918 8.81396-1.98242 8.77612-2.03695 8.72485-2.07275 8.67358-2.10856 8.604-2.12646 8.51611-2.12646 8.41032-2.12646 8.3151-2.09798 8.23047-2.04102 8.14583-1.98405 8.08521-1.90186 8.04858-1.79443 8.01196-1.68701 7.99365-1.50879 7.99365-1.25977L7.99365 0 7.30762 0ZM13.5479-2.59277 13.5479-2.0459 13.0791-2.0459 13.0791-1.00098C13.0791-0.789388 13.0836-0.666097 13.0925-0.631104 13.1015-0.59611 13.1218-0.56722 13.1536-0.544434 13.1853-0.521647 13.224-0.510254 13.2695-0.510254 13.333-0.510254 13.425-0.532227 13.5454-0.576172L13.604-0.0439453C13.4445 0.0244141 13.2638 0.0585937 13.062 0.0585938 12.9383 0.0585937 12.8268 0.0378418 12.7275-0.00366211 12.6283-0.045166 12.5554-0.098877 12.509-0.164795 12.4626-0.230713 12.4305-0.319824 12.4126-0.432129 12.3979-0.511881 12.3906-0.673014 12.3906-0.915527L12.3906-2.0459 12.0757-2.0459 12.0757-2.59277 12.3906-2.59277 12.3906-3.10791 13.0791-3.5083 13.0791-2.59277ZM15.0425-3.5791 15.0425-2.26318C15.2638-2.52197 15.5283-2.65137 15.8359-2.65137 15.9938-2.65137 16.1362-2.62207 16.2632-2.56348 16.3901-2.50488 16.4858-2.43001 16.55-2.33887 16.6143-2.24772 16.6583-2.14681 16.6819-2.03613 16.7055-1.92546 16.7173-1.75374 16.7173-1.521L16.7173 0 16.0312 0 16.0312-1.36963C16.0312-1.64144 16.0182-1.81396 15.9922-1.88721 15.9661-1.96045 15.9202-2.01864 15.8542-2.06177 15.7883-2.1049 15.7057-2.12646 15.6064-2.12646 15.4925-2.12646 15.3908-2.0988 15.3013-2.04346 15.2118-1.98812 15.1462-1.9047 15.1047-1.79321 15.0632-1.68172 15.0425-1.51693 15.0425-1.29883L15.0425 0 14.3564 0 14.3564-3.5791ZM18.8604-0.825195 19.5439-0.710449C19.4561-0.459798 19.3173-0.268962 19.1277-0.137939 18.9381-0.00691732 18.7008 0.0585937 18.416 0.0585938 17.9652 0.0585937 17.6315-0.0887044 17.415-0.383301 17.2441-0.619303 17.1587-0.917155 17.1587-1.27686 17.1587-1.70654 17.271-2.04305 17.4956-2.28638 17.7202-2.5297 18.0042-2.65137 18.3477-2.65137 18.7334-2.65137 19.0378-2.52401 19.2607-2.26929 19.4837-2.01457 19.5903-1.62435 19.5806-1.09863L17.8618-1.09863C17.8667-0.895182 17.922-0.736898 18.0278-0.623779 18.1336-0.510661 18.2655-0.454102 18.4233-0.454102 18.5308-0.454102 18.6211-0.483398 18.6943-0.541992 18.7676-0.600586 18.8229-0.694987 18.8604-0.825195ZM18.8994-1.51855C18.8945-1.71712 18.8433-1.86808 18.7456-1.97144 18.6479-2.07479 18.5291-2.12646 18.3892-2.12646 18.2394-2.12646 18.1157-2.07194 18.0181-1.96289 17.9204-1.85384 17.8724-1.70573 17.874-1.51855ZM21.3711 0 21.3711-3.5791 22.0742-3.5791 23.5391-1.18896 23.5391-3.5791 24.2104-3.5791 24.2104 0 23.4854 0 22.0425-2.33398 22.0425 0ZM25.2002-1.33301C25.2002-1.56087 25.2563-1.78141 25.3687-1.99463 25.481-2.20784 25.6401-2.37061 25.8459-2.48291 26.0518-2.59521 26.2817-2.65137 26.5356-2.65137 26.9279-2.65137 27.2493-2.52401 27.5-2.26929 27.7506-2.01457 27.876-1.69271 27.876-1.30371 27.876-0.911458 27.7494-0.586344 27.4963-0.328369 27.2432-0.0703939 26.9246 0.0585937 26.5405 0.0585938 26.3029 0.0585937 26.0763 0.00488281 25.8606-0.102539 25.6449-0.209961 25.481-0.367432 25.3687-0.574951 25.2563-0.782471 25.2002-1.03516 25.2002-1.33301ZM25.9033-1.29639C25.9033-1.03923 25.9644-0.842285 26.0864-0.705566 26.2085-0.568848 26.359-0.500488 26.5381-0.500488 26.7171-0.500488 26.8673-0.568848 26.9885-0.705566 27.1098-0.842285 27.1704-1.04085 27.1704-1.30127 27.1704-1.55518 27.1098-1.75049 26.9885-1.88721 26.8673-2.02393 26.7171-2.09229 26.5381-2.09229 26.359-2.09229 26.2085-2.02393 26.0864-1.88721 25.9644-1.75049 25.9033-1.55355 25.9033-1.29639ZM30.0654 0 30.0654-0.388184C29.971-0.249837 29.8469-0.140788 29.6931-0.0610352 29.5393 0.0187174 29.377 0.0585937 29.2061 0.0585938 29.0319 0.0585937 28.8757 0.020345 28.7373-0.0561523 28.599-0.13265 28.4989-0.240072 28.437-0.378418 28.3752-0.516764 28.3442-0.708008 28.3442-0.952148L28.3442-2.59277 29.0303-2.59277 29.0303-1.40137C29.0303-1.03678 29.0429-0.813395 29.0681-0.731201 29.0933-0.649007 29.1393-0.583903 29.2061-0.535889 29.2728-0.487874 29.3574-0.463867 29.46-0.463867 29.5771-0.463867 29.6821-0.496012 29.7749-0.560303 29.8677-0.624593 29.9312-0.704346 29.9653-0.799561 29.9995-0.894775 30.0166-1.12793 30.0166-1.49902L30.0166-2.59277 30.7026-2.59277 30.7026 0ZM33.7173 0 33.0312 0 33.0312-1.32324C33.0312-1.60319 33.0166-1.78426 32.9873-1.86646 32.958-1.94865 32.9104-2.01253 32.8445-2.05811 32.7786-2.10368 32.6992-2.12646 32.6064-2.12646 32.4876-2.12646 32.381-2.09391 32.2866-2.02881 32.1922-1.9637 32.1275-1.87744 32.0925-1.77002 32.0575-1.6626 32.04-1.46403 32.04-1.17432L32.04 0 31.354 0 31.354-2.59277 31.9912-2.59277 31.9912-2.21191C32.2174-2.50488 32.5023-2.65137 32.8457-2.65137 32.9971-2.65137 33.1354-2.6241 33.2607-2.56958 33.3861-2.51506 33.4809-2.44548 33.5452-2.36084 33.6095-2.2762 33.6542-2.18018 33.6794-2.07275 33.7047-1.96533 33.7173-1.81152 33.7173-1.61133ZM35.3638 0 35.3638-3.5791 36.5234-3.5791C36.9629-3.5791 37.2493-3.5612 37.3828-3.52539 37.5879-3.47168 37.7596-3.3549 37.8979-3.17505 38.0363-2.9952 38.1055-2.76286 38.1055-2.47803 38.1055-2.2583 38.0656-2.07357 37.9858-1.92383 37.9061-1.77409 37.8048-1.65649 37.6819-1.57104 37.559-1.4856 37.4341-1.42904 37.3071-1.40137 37.1346-1.36719 36.8848-1.3501 36.5576-1.3501L36.0864-1.3501 36.0864 0ZM36.0864-2.97363 36.0864-1.95801 36.4819-1.95801C36.7668-1.95801 36.9572-1.97673 37.0532-2.01416 37.1493-2.05159 37.2245-2.11019 37.2791-2.18994 37.3336-2.26969 37.3608-2.36247 37.3608-2.46826 37.3608-2.59847 37.3226-2.70589 37.2461-2.79053 37.1696-2.87516 37.0728-2.92806 36.9556-2.94922 36.8693-2.96549 36.696-2.97363 36.4355-2.97363ZM39.0156 0 38.3296 0 38.3296-2.59277 38.9668-2.59277 38.9668-2.22412C39.0758-2.39827 39.1739-2.51302 39.261-2.56836 39.3481-2.6237 39.4469-2.65137 39.5576-2.65137 39.7139-2.65137 39.8644-2.60824 40.0093-2.52197L39.7969-1.92383C39.6813-1.9987 39.5739-2.03613 39.4746-2.03613 39.3786-2.03613 39.2972-2.00968 39.2305-1.95679 39.1637-1.90389 39.1112-1.80827 39.073-1.66992 39.0347-1.53158 39.0156-1.24186 39.0156-0.800781ZM40.2002-1.33301C40.2002-1.56087 40.2563-1.78141 40.3687-1.99463 40.481-2.20784 40.6401-2.37061 40.8459-2.48291 41.0518-2.59521 41.2817-2.65137 41.5356-2.65137 41.9279-2.65137 42.2493-2.52401 42.5-2.26929 42.7506-2.01457 42.876-1.69271 42.876-1.30371 42.876-0.911458 42.7494-0.586344 42.4963-0.328369 42.2432-0.0703939 41.9246 0.0585937 41.5405 0.0585938 41.3029 0.0585937 41.0763 0.00488281 40.8606-0.102539 40.6449-0.209961 40.481-0.367432 40.3687-0.574951 40.2563-0.782471 40.2002-1.03516 40.2002-1.33301ZM40.9033-1.29639C40.9033-1.03923 40.9644-0.842285 41.0864-0.705566 41.2085-0.568848 41.359-0.500488 41.5381-0.500488 41.7171-0.500488 41.8673-0.568848 41.9885-0.705566 42.1098-0.842285 42.1704-1.04085 42.1704-1.30127 42.1704-1.55518 42.1098-1.75049 41.9885-1.88721 41.8673-2.02393 41.7171-2.09229 41.5381-2.09229 41.359-2.09229 41.2085-2.02393 41.0864-1.88721 40.9644-1.75049 40.9033-1.55355 40.9033-1.29639ZM43.3442-2.94434 43.3442-3.5791 44.0303-3.5791 44.0303-2.94434ZM44.0303-2.59277 44.0303-0.0805664C44.0303 0.249837 44.0087 0.482992 43.9656 0.618896 43.9224 0.754801 43.8394 0.861003 43.7166 0.9375 43.5937 1.014 43.437 1.05225 43.2466 1.05225 43.1782 1.05225 43.1046 1.04614 43.0256 1.03394 42.9467 1.02173 42.8617 1.00342 42.7705 0.979004L42.8901 0.393066C42.9227 0.399577 42.9532 0.404867 42.9817 0.408936 43.0102 0.413005 43.0366 0.415039 43.061 0.415039 43.131 0.415039 43.1884 0.399984 43.2332 0.369873 43.2779 0.339762 43.3076 0.303548 43.3223 0.26123 43.3369 0.218913 43.3442 0.0919596 43.3442-0.119629L43.3442-2.59277ZM45.8604-0.825195 46.5439-0.710449C46.4561-0.459798 46.3173-0.268962 46.1277-0.137939 45.9381-0.00691732 45.7008 0.0585937 45.416 0.0585938 44.9652 0.0585937 44.6315-0.0887044 44.415-0.383301 44.2441-0.619303 44.1587-0.917155 44.1587-1.27686 44.1587-1.70654 44.271-2.04305 44.4956-2.28638 44.7202-2.5297 45.0042-2.65137 45.3477-2.65137 45.7334-2.65137 46.0378-2.52401 46.2607-2.26929 46.4837-2.01457 46.5903-1.62435 46.5806-1.09863L44.8618-1.09863C44.8667-0.895182 44.922-0.736898 45.0278-0.623779 45.1336-0.510661 45.2655-0.454102 45.4233-0.454102 45.5308-0.454102 45.6211-0.483398 45.6943-0.541992 45.7676-0.600586 45.8229-0.694987 45.8604-0.825195ZM45.8994-1.51855C45.8945-1.71712 45.8433-1.86808 45.7456-1.97144 45.6479-2.07479 45.5291-2.12646 45.3892-2.12646 45.2394-2.12646 45.1157-2.07194 45.0181-1.96289 44.9204-1.85384 44.8724-1.70573 44.874-1.51855ZM49.6196-1.82617 48.9434-1.7041C48.9206-1.83919 48.8689-1.94092 48.7883-2.00928 48.7078-2.07764 48.6032-2.11182 48.4746-2.11182 48.3037-2.11182 48.1674-2.05282 48.0657-1.93481 47.9639-1.81681 47.9131-1.61947 47.9131-1.34277 47.9131-1.03516 47.9648-0.817871 48.0681-0.690918 48.1715-0.563965 48.3102-0.500488 48.4844-0.500488 48.6146-0.500488 48.7212-0.537516 48.8042-0.611572 48.8872-0.685628 48.9458-0.812988 48.98-0.993652L49.6538-0.878906C49.5838-0.569661 49.4495-0.3361 49.251-0.178223 49.0524-0.0203451 48.7863 0.0585937 48.4526 0.0585938 48.0734 0.0585937 47.7711-0.0610352 47.5457-0.300293 47.3202-0.539551 47.2075-0.870768 47.2075-1.29395 47.2075-1.72201 47.3206-2.05526 47.5469-2.2937 47.7731-2.53215 48.0791-2.65137 48.4648-2.65137 48.7806-2.65137 49.0317-2.58341 49.218-2.44751 49.4044-2.3116 49.5382-2.10449 49.6196-1.82617ZM51.5479-2.59277 51.5479-2.0459 51.0791-2.0459 51.0791-1.00098C51.0791-0.789388 51.0836-0.666097 51.0925-0.631104 51.1015-0.59611 51.1218-0.56722 51.1536-0.544434 51.1853-0.521647 51.224-0.510254 51.2695-0.510254 51.333-0.510254 51.425-0.532227 51.5454-0.576172L51.604-0.0439453C51.4445 0.0244141 51.2638 0.0585937 51.062 0.0585938 50.9383 0.0585937 50.8268 0.0378418 50.7275-0.00366211 50.6283-0.045166 50.5554-0.098877 50.509-0.164795 50.4626-0.230713 50.4305-0.319824 50.4126-0.432129 50.3979-0.511881 50.3906-0.673014 50.3906-0.915527L50.3906-2.0459 50.0757-2.0459 50.0757-2.59277 50.3906-2.59277 50.3906-3.10791 51.0791-3.5083 51.0791-2.59277Z" fill="#FFFFFF" transform="matrix(0.2958 0 0 0.284589 7.70996 45)"/></g></g></g></g></g><g clip-path="url(#clip7)"><g clip-path="url(#clip8)"><g clip-path="url(#clip9)"><path d="M13.9505 1.39505C7.0163 1.39505 1.39505 7.0163 1.39505 13.9505 1.39505 20.8846 7.0163 26.5059 13.9505 26.5059 20.8846 26.5059 26.5059 20.8846 26.5059 13.9505 26.5059 7.0163 20.8846 1.39505 13.9505 1.39505ZM16.0541 19.8308C15.3411 20.8364 14.6275 21.5263 13.8598 21.9119 13.3037 22.1836 12.6895 22.3149 12.071 22.2945 10.449 22.1603 9.6954 20.9378 10.4032 18.9933L12.5355 13.1346C12.9957 11.8703 12.5497 11.4858 12.1847 11.4758 11.7504 11.4679 11.2311 11.8748 10.6269 12.6968 10.5236 12.8413 10.3227 12.8748 10.1782 12.7715 10.0344 12.6687 10.0004 12.4692 10.1022 12.3246 10.8151 11.3191 11.5288 10.6292 12.2965 10.2435 12.8526 9.9719 13.4668 9.84054 14.0853 9.86093 15.7073 9.99516 16.4609 11.2177 15.7531 13.1621L13.6208 19.0209C13.1606 20.2852 13.6066 20.6697 13.9716 20.6797 14.4059 20.6876 14.9251 20.2806 15.5293 19.4587 15.6326 19.3142 15.8335 19.2807 15.9781 19.384 16.1219 19.4867 16.1558 19.6863 16.0541 19.8308ZM17.7647 7.63539C17.4782 8.42239 16.608 8.82818 15.821 8.54172 15.034 8.25524 14.6282 7.38504 14.9147 6.59801 15.2011 5.81101 16.0713 5.40524 16.8583 5.6917 17.6453 5.9781 18.0511 6.84831 17.7647 7.63531 17.7647 7.63533 17.7647 7.63536 17.7647 7.63539Z" fill="#FFFFFF" transform="matrix(1.03939 0 0 1 1154 638.27)"/><text fill="#FFFFFF" font-family="Arial,Arial_MSFontService,sans-serif" font-weight="700" font-size="5" transform="matrix(0.29 0 0 0.279009 1154 670)">Created by Markus<tspan font-size="5" x="0" y="7.16823">from the Noun Project</tspan></text></g></g></g></g></svg>