<svg width="42" height="41" xmlns="http://www.w3.org/2000/svg" xmlns:xlink="http://www.w3.org/1999/xlink" xml:space="preserve" overflow="hidden"><defs><filter id="fx0" x="-10%" y="-10%" width="120%" height="120%" filterUnits="userSpaceOnUse" primitiveUnits="userSpaceOnUse"><feComponentTransfer color-interpolation-filters="sRGB"><feFuncR type="discrete" tableValues="0 0"/><feFuncG type="discrete" tableValues="0 0"/><feFuncB type="discrete" tableValues="0 0"/><feFuncA type="linear" slope="0.4" intercept="0"/></feComponentTransfer><feGaussianBlur stdDeviation="2.22222 2.22222"/></filter><clipPath id="clip1"><rect x="1075" y="630" width="42" height="41"/></clipPath><clipPath id="clip2"><rect x="-4" y="1" width="49" height="46"/></clipPath><clipPath id="clip3"><rect x="0" y="0" width="44" height="43"/></clipPath><clipPath id="clip4"><rect x="7" y="7" width="30" height="29"/></clipPath><clipPath id="clip5"><rect x="7" y="7" width="30" height="29"/></clipPath><clipPath id="clip6"><rect x="7" y="7" width="30" height="37"/></clipPath><clipPath id="clip7"><rect x="1082" y="637" width="28" height="27"/></clipPath><clipPath id="clip8"><rect x="1082" y="637" width="28" height="27"/></clipPath><clipPath id="clip9"><rect x="1082" y="636" width="28" height="36"/></clipPath></defs><g clip-path="url(#clip1)" transform="translate(-1075 -630)"><g clip-path="url(#clip2)" filter="url(#fx0)" transform="translate(1074 629)"><g clip-path="url(#clip3)"><g clip-path="url(#clip4)"><g clip-path="url(#clip5)"><g clip-path="url(#clip6)"><path d="M14.1919 10.1694C10.8493 10.1694 8.12989 12.8888 8.12989 16.2315 8.12989 19.5741 10.8493 22.2935 14.1919 22.2935 17.5345 22.2935 20.2539 19.5741 20.2539 16.2315 20.2822 12.8888 17.5628 10.1694 14.1919 10.1694ZM19.0925 16.6847C18.8375 16.6847 18.6393 16.4864 18.6393 16.2315 18.6393 13.767 16.6564 11.7841 14.1919 11.7841 13.937 11.7841 13.7387 11.5858 13.7387 11.3309 13.7387 11.0759 13.937 10.8776 14.1919 10.8776 17.1379 10.8776 19.5174 13.2571 19.5174 16.2031 19.5174 16.4864 19.3191 16.6847 19.0925 16.6847ZM24.1064 10.3677C23.8515 10.3677 23.6532 10.566 23.6532 10.8493 23.6532 11.1042 23.8515 11.3309 24.1347 11.3309 24.248 11.3309 24.3897 11.2742 24.4746 11.1892 24.5596 11.1042 24.6163 10.9909 24.6163 10.8493 24.5596 10.5944 24.3613 10.3677 24.1064 10.3677ZM24.1064 10.3677C23.8515 10.3677 23.6532 10.566 23.6532 10.8493 23.6532 11.1042 23.8515 11.3309 24.1347 11.3309 24.248 11.3309 24.3897 11.2742 24.4746 11.1892 24.5596 11.1042 24.6163 10.9909 24.6163 10.8493 24.5596 10.5944 24.3613 10.3677 24.1064 10.3677ZM14.1919 10.1694C10.8493 10.1694 8.12989 12.8888 8.12989 16.2315 8.12989 19.5741 10.8493 22.2935 14.1919 22.2935 17.5345 22.2935 20.2539 19.5741 20.2539 16.2315 20.2822 12.8888 17.5628 10.1694 14.1919 10.1694ZM19.0925 16.6847C18.8375 16.6847 18.6393 16.4864 18.6393 16.2315 18.6393 13.767 16.6564 11.7841 14.1919 11.7841 13.937 11.7841 13.7387 11.5858 13.7387 11.3309 13.7387 11.0759 13.937 10.8776 14.1919 10.8776 17.1379 10.8776 19.5174 13.2571 19.5174 16.2031 19.5174 16.4864 19.3191 16.6847 19.0925 16.6847ZM25.0978 8.01658 21.3587 8.01658C20.1689 8.01658 19.1208 7.25175 18.7809 6.14699L18.4126 5.07056C18.1577 4.30573 17.4495 3.79584 16.6564 3.79584L11.6708 3.79584C10.8776 3.79584 10.1694 4.30573 9.9145 5.07056L9.57457 6.14699C9.20632 7.28008 8.15822 8.01658 6.96848 8.01658L3.25762 8.01658C2.23784 8.01658 1.41636 8.83807 1.41636 9.85784L1.41636 22.69C1.41636 23.7098 2.23784 24.5313 3.25762 24.5313L25.0978 24.5313C26.1176 24.5313 26.9391 23.7098 26.9391 22.69L26.9391 9.85784C26.9108 8.83807 26.0893 8.04491 25.0978 8.01658ZM14.1919 23.1999C10.3394 23.1999 7.22342 20.0839 7.22342 16.2315 7.22342 12.379 10.3394 9.26297 14.1919 9.26297 16.1181 9.26297 17.8461 10.0561 19.1208 11.3025 20.3955 12.5489 21.1604 14.3052 21.1604 16.2315 21.1604 20.0839 18.0444 23.1999 14.1919 23.1999ZM24.1064 12.209C23.3699 12.209 22.7467 11.6141 22.7467 10.8493 22.7467 10.0845 23.3416 9.48959 24.1064 9.48959 24.4746 9.48959 24.8146 9.63123 25.0695 9.88617 25.3245 10.1411 25.4661 10.481 25.4661 10.8493 25.4661 11.5858 24.8429 12.209 24.1064 12.209ZM24.1064 10.3677C23.8515 10.3677 23.6532 10.566 23.6532 10.8493 23.6532 11.1042 23.8515 11.3309 24.1347 11.3309 24.248 11.3309 24.3897 11.2742 24.4746 11.1892 24.5596 11.1042 24.6163 10.9909 24.6163 10.8493 24.5596 10.5944 24.3613 10.3677 24.1064 10.3677ZM14.1919 10.1694C10.8493 10.1694 8.12989 12.8888 8.12989 16.2315 8.12989 19.5741 10.8493 22.2935 14.1919 22.2935 17.5345 22.2935 20.2539 19.5741 20.2539 16.2315 20.2822 12.8888 17.5628 10.1694 14.1919 10.1694ZM19.0925 16.6847C18.8375 16.6847 18.6393 16.4864 18.6393 16.2315 18.6393 13.767 16.6564 11.7841 14.1919 11.7841 13.937 11.7841 13.7387 11.5858 13.7387 11.3309 13.7387 11.0759 13.937 10.8776 14.1919 10.8776 17.1379 10.8776 19.5174 13.2571 19.5174 16.2031 19.5174 16.4864 19.3191 16.6847 19.0925 16.6847ZM14.1919 10.1694C10.8493 10.1694 8.12989 12.8888 8.12989 16.2315 8.12989 19.5741 10.8493 22.2935 14.1919 22.2935 17.5345 22.2935 20.2539 19.5741 20.2539 16.2315 20.2822 12.8888 17.5628 10.1694 14.1919 10.1694ZM19.0925 16.6847C18.8375 16.6847 18.6393 16.4864 18.6393 16.2315 18.6393 13.767 16.6564 11.7841 14.1919 11.7841 13.937 11.7841 13.7387 11.5858 13.7387 11.3309 13.7387 11.0759 13.937 10.8776 14.1919 10.8776 17.1379 10.8776 19.5174 13.2571 19.5174 16.2031 19.5174 16.4864 19.3191 16.6847 19.0925 16.6847ZM14.1919 10.1694C10.8493 10.1694 8.12989 12.8888 8.12989 16.2315 8.12989 19.5741 10.8493 22.2935 14.1919 22.2935 17.5345 22.2935 20.2539 19.5741 20.2539 16.2315 20.2822 12.8888 17.5628 10.1694 14.1919 10.1694ZM19.0925 16.6847C18.8375 16.6847 18.6393 16.4864 18.6393 16.2315 18.6393 13.767 16.6564 11.7841 14.1919 11.7841 13.937 11.7841 13.7387 11.5858 13.7387 11.3309 13.7387 11.0759 13.937 10.8776 14.1919 10.8776 17.1379 10.8776 19.5174 13.2571 19.5174 16.2031 19.5174 16.4864 19.3191 16.6847 19.0925 16.6847Z" fill="#FFFFFF" transform="matrix(1.00822 0 0 1 7.71997 7.72968)"/><path d="M2.65381-1.31592 3.35449-1.09375C3.24707-0.703125 3.06844-0.413005 2.8186-0.223389 2.56877-0.0337728 2.25179 0.0610352 1.86768 0.0610352 1.39242 0.0610352 1.00179-0.101318 0.695801-0.426025 0.389811-0.750732 0.236816-1.19466 0.236816-1.75781 0.236816-2.35352 0.390625-2.81616 0.698242-3.14575 1.00586-3.47534 1.41032-3.64014 1.91162-3.64014 2.34945-3.64014 2.70508-3.51074 2.97852-3.25195 3.14128-3.09896 3.26335-2.87923 3.34473-2.59277L2.62939-2.42188C2.58708-2.60742 2.49878-2.75391 2.3645-2.86133 2.23022-2.96875 2.06706-3.02246 1.875-3.02246 1.6097-3.02246 1.39445-2.92725 1.22925-2.73682 1.06405-2.54639 0.981445-2.23796 0.981445-1.81152 0.981445-1.35905 1.06283-1.03678 1.22559-0.844727 1.38835-0.652669 1.59993-0.556641 1.86035-0.556641 2.05241-0.556641 2.21761-0.617676 2.35596-0.739746 2.4943-0.861816 2.59359-1.05387 2.65381-1.31592ZM5.01562 0 4.32959 0 4.32959-2.59277 4.9668-2.59277 4.9668-2.22412C5.07585-2.39827 5.17391-2.51302 5.26099-2.56836 5.34806-2.6237 5.44694-2.65137 5.55762-2.65137 5.71387-2.65137 5.86442-2.60824 6.00928-2.52197L5.79688-1.92383C5.68131-1.9987 5.57389-2.03613 5.47461-2.03613 5.37858-2.03613 5.2972-2.00968 5.23047-1.95679 5.16374-1.90389 5.11125-1.80827 5.073-1.66992 5.03475-1.53158 5.01562-1.24186 5.01562-0.800781ZM7.86035-0.825195 8.54395-0.710449C8.45605-0.459798 8.3173-0.268962 8.12769-0.137939 7.93807-0.00691732 7.70085 0.0585937 7.41602 0.0585938 6.96517 0.0585937 6.63151-0.0887044 6.41504-0.383301 6.24414-0.619303 6.15869-0.917155 6.15869-1.27686 6.15869-1.70654 6.271-2.04305 6.49561-2.28638 6.72021-2.5297 7.00423-2.65137 7.34766-2.65137 7.7334-2.65137 8.03776-2.52401 8.26074-2.26929 8.48372-2.01457 8.59033-1.62435 8.58057-1.09863L6.86182-1.09863C6.8667-0.895182 6.92204-0.736898 7.02783-0.623779 7.13363-0.510661 7.26546-0.454102 7.42334-0.454102 7.53076-0.454102 7.62109-0.483398 7.69434-0.541992 7.76758-0.600586 7.82292-0.694987 7.86035-0.825195ZM7.89941-1.51855C7.89453-1.71712 7.84326-1.86808 7.74561-1.97144 7.64795-2.07479 7.52913-2.12646 7.38916-2.12646 7.23942-2.12646 7.11572-2.07194 7.01807-1.96289 6.92041-1.85384 6.8724-1.70573 6.87402-1.51855ZM9.87158-1.80176 9.24902-1.91406C9.31901-2.16471 9.43945-2.35026 9.61035-2.4707 9.78125-2.59115 10.0352-2.65137 10.3721-2.65137 10.6781-2.65137 10.9059-2.61515 11.0557-2.54272 11.2054-2.4703 11.3108-2.37834 11.3718-2.26685 11.4329-2.15535 11.4634-1.95068 11.4634-1.65283L11.4561-0.852051C11.4561-0.624186 11.467-0.456136 11.489-0.3479 11.511-0.239665 11.5521-0.123698 11.6123 0L10.9336 0C10.9157-0.0455729 10.8937-0.113118 10.8677-0.202637 10.8563-0.243327 10.8481-0.270182 10.8433-0.283203 10.7261-0.169271 10.6007-0.0838216 10.4673-0.0268555 10.3338 0.0301107 10.1914 0.0585937 10.04 0.0585938 9.77311 0.0585937 9.56274-0.0138346 9.40894-0.158691 9.25513-0.303548 9.17822-0.486654 9.17822-0.708008 9.17822-0.854492 9.21322-0.985107 9.2832-1.09985 9.35319-1.2146 9.45125-1.30249 9.57739-1.36353 9.70353-1.42456 9.88542-1.47786 10.123-1.52344 10.4437-1.58366 10.6659-1.63981 10.7896-1.69189L10.7896-1.76025C10.7896-1.89209 10.757-1.98608 10.6919-2.04224 10.6268-2.09839 10.5039-2.12646 10.3232-2.12646 10.2012-2.12646 10.106-2.10246 10.0376-2.05444 9.96924-2.00643 9.9139-1.9222 9.87158-1.80176ZM10.7896-1.24512C10.7017-1.21582 10.5625-1.18083 10.3721-1.14014 10.1816-1.09945 10.0571-1.05957 9.99854-1.02051 9.90902-0.957031 9.86426-0.876465 9.86426-0.778809 9.86426-0.68278 9.90006-0.599772 9.97168-0.529785 10.0433-0.459798 10.1344-0.424805 10.2451-0.424805 10.3688-0.424805 10.4868-0.465495 10.5991-0.546875 10.6821-0.608724 10.7367-0.684408 10.7627-0.773926 10.7806-0.83252 10.7896-0.94401 10.7896-1.1084ZM13.5479-2.59277 13.5479-2.0459 13.0791-2.0459 13.0791-1.00098C13.0791-0.789388 13.0836-0.666097 13.0925-0.631104 13.1015-0.59611 13.1218-0.56722 13.1536-0.544434 13.1853-0.521647 13.224-0.510254 13.2695-0.510254 13.333-0.510254 13.425-0.532227 13.5454-0.576172L13.604-0.0439453C13.4445 0.0244141 13.2638 0.0585937 13.062 0.0585938 12.9383 0.0585937 12.8268 0.0378418 12.7275-0.00366211 12.6283-0.045166 12.5554-0.098877 12.509-0.164795 12.4626-0.230713 12.4305-0.319824 12.4126-0.432129 12.3979-0.511881 12.3906-0.673014 12.3906-0.915527L12.3906-2.0459 12.0757-2.0459 12.0757-2.59277 12.3906-2.59277 12.3906-3.10791 13.0791-3.5083 13.0791-2.59277ZM15.8604-0.825195 16.5439-0.710449C16.4561-0.459798 16.3173-0.268962 16.1277-0.137939 15.9381-0.00691732 15.7008 0.0585937 15.416 0.0585938 14.9652 0.0585937 14.6315-0.0887044 14.415-0.383301 14.2441-0.619303 14.1587-0.917155 14.1587-1.27686 14.1587-1.70654 14.271-2.04305 14.4956-2.28638 14.7202-2.5297 15.0042-2.65137 15.3477-2.65137 15.7334-2.65137 16.0378-2.52401 16.2607-2.26929 16.4837-2.01457 16.5903-1.62435 16.5806-1.09863L14.8618-1.09863C14.8667-0.895182 14.922-0.736898 15.0278-0.623779 15.1336-0.510661 15.2655-0.454102 15.4233-0.454102 15.5308-0.454102 15.6211-0.483398 15.6943-0.541992 15.7676-0.600586 15.8229-0.694987 15.8604-0.825195ZM15.8994-1.51855C15.8945-1.71712 15.8433-1.86808 15.7456-1.97144 15.6479-2.07479 15.5291-2.12646 15.3892-2.12646 15.2394-2.12646 15.1157-2.07194 15.0181-1.96289 14.9204-1.85384 14.8724-1.70573 14.874-1.51855ZM19.7368 0 19.0996 0 19.0996-0.380859C18.9938-0.232747 18.8689-0.122477 18.7249-0.0500488 18.5808 0.0223796 18.4355 0.0585937 18.2891 0.0585938 17.9912 0.0585937 17.7361-0.0614421 17.5237-0.301514 17.3113-0.541585 17.2051-0.876465 17.2051-1.30615 17.2051-1.74561 17.3084-2.07967 17.5151-2.30835 17.7218-2.53703 17.9831-2.65137 18.2988-2.65137 18.5885-2.65137 18.8392-2.53092 19.0508-2.29004L19.0508-3.5791 19.7368-3.5791ZM17.9058-1.35254C17.9058-1.07585 17.944-0.875651 18.0205-0.751953 18.1312-0.572917 18.2858-0.483398 18.4844-0.483398 18.6423-0.483398 18.7765-0.550537 18.8872-0.684814 18.9979-0.819092 19.0532-1.01969 19.0532-1.28662 19.0532-1.58447 18.9995-1.79891 18.8921-1.92993 18.7847-2.06095 18.6471-2.12646 18.4795-2.12646 18.3167-2.12646 18.1804-2.06177 18.0706-1.93237 17.9607-1.80298 17.9058-1.6097 17.9058-1.35254ZM21.3296 0 21.3296-3.5791 22.0156-3.5791 22.0156-2.29004C22.2272-2.53092 22.4779-2.65137 22.7676-2.65137 23.0833-2.65137 23.3446-2.53703 23.5513-2.30835 23.758-2.07967 23.8613-1.7513 23.8613-1.32324 23.8613-0.880534 23.7559-0.539551 23.5452-0.300293 23.3344-0.0610352 23.0784 0.0585937 22.7773 0.0585938 22.6292 0.0585937 22.4832 0.0215658 22.3391-0.0524902 22.1951-0.126546 22.071-0.236003 21.9668-0.380859L21.9668 0ZM22.0107-1.35254C22.0107-1.08398 22.0531-0.885417 22.1377-0.756836 22.2565-0.574544 22.4144-0.483398 22.6113-0.483398 22.7627-0.483398 22.8917-0.548096 22.9983-0.67749 23.1049-0.806885 23.1582-1.01074 23.1582-1.28906 23.1582-1.58529 23.1045-1.79891 22.9971-1.92993 22.8896-2.06095 22.7521-2.12646 22.5845-2.12646 22.4201-2.12646 22.2834-2.06258 22.1743-1.93481 22.0653-1.80705 22.0107-1.61296 22.0107-1.35254ZM24.0342-2.59277 24.7642-2.59277 25.3843-0.751953 25.9897-2.59277 26.7002-2.59277 25.7847-0.0976562 25.6211 0.354004C25.5609 0.505371 25.5035 0.620931 25.449 0.700684 25.3944 0.780436 25.3318 0.845133 25.261 0.894775 25.1902 0.944417 25.1031 0.983073 24.9998 1.01074 24.8964 1.03841 24.7796 1.05225 24.6494 1.05225 24.5176 1.05225 24.3882 1.03841 24.2612 1.01074L24.2002 0.473633C24.3076 0.494792 24.4045 0.505371 24.4907 0.505371 24.6502 0.505371 24.7682 0.458577 24.8447 0.36499 24.9212 0.271403 24.9798 0.152181 25.0205 0.00732422ZM28.3662 0 28.3662-3.5791 29.8872-3.5791C30.2697-3.5791 30.5476-3.54696 30.7209-3.48267 30.8943-3.41838 31.033-3.30404 31.1372-3.13965 31.2414-2.97526 31.2935-2.78727 31.2935-2.57568 31.2935-2.30713 31.2145-2.08537 31.0566-1.9104 30.8988-1.73543 30.6628-1.62516 30.3486-1.57959 30.5049-1.48844 30.6339-1.38835 30.7356-1.2793 30.8373-1.17025 30.9744-0.976562 31.147-0.698242L31.584 0 30.7197 0 30.1973-0.778809C30.0117-1.05713 29.8848-1.2325 29.8164-1.30493 29.748-1.37736 29.6756-1.427 29.5991-1.45386 29.5226-1.48071 29.4014-1.49414 29.2354-1.49414L29.0889-1.49414 29.0889 0ZM29.0889-2.06543 29.6235-2.06543C29.9702-2.06543 30.1867-2.08008 30.2729-2.10938 30.3592-2.13867 30.4268-2.18913 30.4756-2.26074 30.5244-2.33236 30.5488-2.42188 30.5488-2.5293 30.5488-2.64974 30.5167-2.74699 30.4524-2.82104 30.3881-2.8951 30.2974-2.94189 30.1802-2.96143 30.1216-2.96956 29.9458-2.97363 29.6528-2.97363L29.0889-2.97363ZM32.3589-2.94434 32.3589-3.5791 33.0449-3.5791 33.0449-2.94434ZM32.3589 0 32.3589-2.59277 33.0449-2.59277 33.0449 0ZM33.0342-2.59277 33.7642-2.59277 34.3843-0.751953 34.9897-2.59277 35.7002-2.59277 34.7847-0.0976562 34.6211 0.354004C34.5609 0.505371 34.5035 0.620931 34.449 0.700684 34.3944 0.780436 34.3318 0.845133 34.261 0.894775 34.1902 0.944417 34.1031 0.983073 33.9998 1.01074 33.8964 1.03841 33.7796 1.05225 33.6494 1.05225 33.5176 1.05225 33.3882 1.03841 33.2612 1.01074L33.2002 0.473633C33.3076 0.494792 33.4045 0.505371 33.4907 0.505371 33.6502 0.505371 33.7682 0.458577 33.8447 0.36499 33.9212 0.271403 33.9798 0.152181 34.0205 0.00732422ZM36.8716-1.80176 36.249-1.91406C36.319-2.16471 36.4395-2.35026 36.6104-2.4707 36.7812-2.59115 37.0352-2.65137 37.3721-2.65137 37.6781-2.65137 37.9059-2.61515 38.0557-2.54272 38.2054-2.4703 38.3108-2.37834 38.3718-2.26685 38.4329-2.15535 38.4634-1.95068 38.4634-1.65283L38.4561-0.852051C38.4561-0.624186 38.467-0.456136 38.489-0.3479 38.511-0.239665 38.5521-0.123698 38.6123 0L37.9336 0C37.9157-0.0455729 37.8937-0.113118 37.8677-0.202637 37.8563-0.243327 37.8481-0.270182 37.8433-0.283203 37.7261-0.169271 37.6007-0.0838216 37.4673-0.0268555 37.3338 0.0301107 37.1914 0.0585937 37.04 0.0585938 36.7731 0.0585937 36.5627-0.0138346 36.4089-0.158691 36.2551-0.303548 36.1782-0.486654 36.1782-0.708008 36.1782-0.854492 36.2132-0.985107 36.2832-1.09985 36.3532-1.2146 36.4513-1.30249 36.5774-1.36353 36.7035-1.42456 36.8854-1.47786 37.123-1.52344 37.4437-1.58366 37.6659-1.63981 37.7896-1.69189L37.7896-1.76025C37.7896-1.89209 37.757-1.98608 37.6919-2.04224 37.6268-2.09839 37.5039-2.12646 37.3232-2.12646 37.2012-2.12646 37.106-2.10246 37.0376-2.05444 36.9692-2.00643 36.9139-1.9222 36.8716-1.80176ZM37.7896-1.24512C37.7017-1.21582 37.5625-1.18083 37.3721-1.14014 37.1816-1.09945 37.0571-1.05957 36.9985-1.02051 36.909-0.957031 36.8643-0.876465 36.8643-0.778809 36.8643-0.68278 36.9001-0.599772 36.9717-0.529785 37.0433-0.459798 37.1344-0.424805 37.2451-0.424805 37.3688-0.424805 37.4868-0.465495 37.5991-0.546875 37.6821-0.608724 37.7367-0.684408 37.7627-0.773926 37.7806-0.83252 37.7896-0.94401 37.7896-1.1084ZM41.7173 0 41.0312 0 41.0312-1.32324C41.0312-1.60319 41.0166-1.78426 40.9873-1.86646 40.958-1.94865 40.9104-2.01253 40.8445-2.05811 40.7786-2.10368 40.6992-2.12646 40.6064-2.12646 40.4876-2.12646 40.381-2.09391 40.2866-2.02881 40.1922-1.9637 40.1275-1.87744 40.0925-1.77002 40.0575-1.6626 40.04-1.46403 40.04-1.17432L40.04 0 39.354 0 39.354-2.59277 39.9912-2.59277 39.9912-2.21191C40.2174-2.50488 40.5023-2.65137 40.8457-2.65137 40.9971-2.65137 41.1354-2.6241 41.2607-2.56958 41.3861-2.51506 41.4809-2.44548 41.5452-2.36084 41.6095-2.2762 41.6542-2.18018 41.6794-2.07275 41.7047-1.96533 41.7173-1.81152 41.7173-1.61133ZM43.3662 0 43.3662-3.5791 44.8872-3.5791C45.2697-3.5791 45.5476-3.54696 45.7209-3.48267 45.8943-3.41838 46.033-3.30404 46.1372-3.13965 46.2414-2.97526 46.2935-2.78727 46.2935-2.57568 46.2935-2.30713 46.2145-2.08537 46.0566-1.9104 45.8988-1.73543 45.6628-1.62516 45.3486-1.57959 45.5049-1.48844 45.6339-1.38835 45.7356-1.2793 45.8373-1.17025 45.9744-0.976562 46.147-0.698242L46.584 0 45.7197 0 45.1973-0.778809C45.0117-1.05713 44.8848-1.2325 44.8164-1.30493 44.748-1.37736 44.6756-1.427 44.5991-1.45386 44.5226-1.48071 44.4014-1.49414 44.2354-1.49414L44.0889-1.49414 44.0889 0ZM44.0889-2.06543 44.6235-2.06543C44.9702-2.06543 45.1867-2.08008 45.2729-2.10938 45.3592-2.13867 45.4268-2.18913 45.4756-2.26074 45.5244-2.33236 45.5488-2.42188 45.5488-2.5293 45.5488-2.64974 45.5167-2.74699 45.4524-2.82104 45.3881-2.8951 45.2974-2.94189 45.1802-2.96143 45.1216-2.96956 44.9458-2.97363 44.6528-2.97363L44.0889-2.97363ZM48.8604-0.825195 49.5439-0.710449C49.4561-0.459798 49.3173-0.268962 49.1277-0.137939 48.9381-0.00691732 48.7008 0.0585937 48.416 0.0585938 47.9652 0.0585937 47.6315-0.0887044 47.415-0.383301 47.2441-0.619303 47.1587-0.917155 47.1587-1.27686 47.1587-1.70654 47.271-2.04305 47.4956-2.28638 47.7202-2.5297 48.0042-2.65137 48.3477-2.65137 48.7334-2.65137 49.0378-2.52401 49.2607-2.26929 49.4837-2.01457 49.5903-1.62435 49.5806-1.09863L47.8618-1.09863C47.8667-0.895182 47.922-0.736898 48.0278-0.623779 48.1336-0.510661 48.2655-0.454102 48.4233-0.454102 48.5308-0.454102 48.6211-0.483398 48.6943-0.541992 48.7676-0.600586 48.8229-0.694987 48.8604-0.825195ZM48.8994-1.51855C48.8945-1.71712 48.8433-1.86808 48.7456-1.97144 48.6479-2.07479 48.5291-2.12646 48.3892-2.12646 48.2394-2.12646 48.1157-2.07194 48.0181-1.96289 47.9204-1.85384 47.8724-1.70573 47.874-1.51855ZM50.1172-0.739746 50.8057-0.844727C50.835-0.711263 50.8944-0.609945 50.9839-0.540771 51.0734-0.471598 51.1987-0.437012 51.3599-0.437012 51.5373-0.437012 51.6707-0.469564 51.7603-0.534668 51.8205-0.580241 51.8506-0.641276 51.8506-0.717773 51.8506-0.769857 51.8343-0.812988 51.8018-0.847168 51.7676-0.87972 51.6911-0.909831 51.5723-0.9375 51.0189-1.05957 50.6681-1.17106 50.52-1.27197 50.3149-1.41195 50.2124-1.60645 50.2124-1.85547 50.2124-2.08008 50.3011-2.26888 50.4785-2.42188 50.6559-2.57487 50.931-2.65137 51.3037-2.65137 51.6585-2.65137 51.9222-2.59359 52.0947-2.47803 52.2673-2.36247 52.3861-2.19157 52.4512-1.96533L51.8042-1.8457C51.7765-1.94661 51.724-2.02393 51.6467-2.07764 51.5694-2.13135 51.4591-2.1582 51.3159-2.1582 51.1353-2.1582 51.0059-2.13298 50.9277-2.08252 50.8756-2.04671 50.8496-2.00033 50.8496-1.94336 50.8496-1.89453 50.8724-1.85303 50.918-1.81885 50.9798-1.77327 51.1934-1.70898 51.5588-1.62598 51.9242-1.54297 52.1794-1.44124 52.3242-1.3208 52.4674-1.19873 52.5391-1.02865 52.5391-0.810547 52.5391-0.572917 52.4398-0.368652 52.2412-0.197754 52.0426-0.0268555 51.7489 0.0585937 51.3599 0.0585938 51.0067 0.0585937 50.7271-0.0130208 50.5212-0.15625 50.3153-0.299479 50.1807-0.493978 50.1172-0.739746ZM55.7368 0 55.0996 0 55.0996-0.380859C54.9938-0.232747 54.8689-0.122477 54.7249-0.0500488 54.5808 0.0223796 54.4355 0.0585937 54.2891 0.0585938 53.9912 0.0585937 53.7361-0.0614421 53.5237-0.301514 53.3113-0.541585 53.2051-0.876465 53.2051-1.30615 53.2051-1.74561 53.3084-2.07967 53.5151-2.30835 53.7218-2.53703 53.9831-2.65137 54.2988-2.65137 54.5885-2.65137 54.8392-2.53092 55.0508-2.29004L55.0508-3.5791 55.7368-3.5791ZM53.9058-1.35254C53.9058-1.07585 53.944-0.875651 54.0205-0.751953 54.1312-0.572917 54.2858-0.483398 54.4844-0.483398 54.6423-0.483398 54.7765-0.550537 54.8872-0.684814 54.9979-0.819092 55.0532-1.01969 55.0532-1.28662 55.0532-1.58447 54.9995-1.79891 54.8921-1.92993 54.7847-2.06095 54.6471-2.12646 54.4795-2.12646 54.3167-2.12646 54.1804-2.06177 54.0706-1.93237 53.9607-1.80298 53.9058-1.6097 53.9058-1.35254ZM56.3589-2.94434 56.3589-3.5791 57.0449-3.5791 57.0449-2.94434ZM56.3589 0 56.3589-2.59277 57.0449-2.59277 57.0449 0ZM57.8716-1.80176 57.249-1.91406C57.319-2.16471 57.4395-2.35026 57.6104-2.4707 57.7812-2.59115 58.0352-2.65137 58.3721-2.65137 58.6781-2.65137 58.9059-2.61515 59.0557-2.54272 59.2054-2.4703 59.3108-2.37834 59.3718-2.26685 59.4329-2.15535 59.4634-1.95068 59.4634-1.65283L59.4561-0.852051C59.4561-0.624186 59.467-0.456136 59.489-0.3479 59.511-0.239665 59.5521-0.123698 59.6123 0L58.9336 0C58.9157-0.0455729 58.8937-0.113118 58.8677-0.202637 58.8563-0.243327 58.8481-0.270182 58.8433-0.283203 58.7261-0.169271 58.6007-0.0838216 58.4673-0.0268555 58.3338 0.0301107 58.1914 0.0585937 58.04 0.0585938 57.7731 0.0585937 57.5627-0.0138346 57.4089-0.158691 57.2551-0.303548 57.1782-0.486654 57.1782-0.708008 57.1782-0.854492 57.2132-0.985107 57.2832-1.09985 57.3532-1.2146 57.4512-1.30249 57.5774-1.36353 57.7035-1.42456 57.8854-1.47786 58.123-1.52344 58.4437-1.58366 58.6658-1.63981 58.7896-1.69189L58.7896-1.76025C58.7896-1.89209 58.757-1.98608 58.6919-2.04224 58.6268-2.09839 58.5039-2.12646 58.3232-2.12646 58.2012-2.12646 58.106-2.10246 58.0376-2.05444 57.9692-2.00643 57.9139-1.9222 57.8716-1.80176ZM58.7896-1.24512C58.7017-1.21582 58.5625-1.18083 58.3721-1.14014 58.1816-1.09945 58.0571-1.05957 57.9985-1.02051 57.909-0.957031 57.8643-0.876465 57.8643-0.778809 57.8643-0.68278 57.9001-0.599772 57.9717-0.529785 58.0433-0.459798 58.1344-0.424805 58.2451-0.424805 58.3688-0.424805 58.4868-0.465495 58.5991-0.546875 58.6821-0.608724 58.7367-0.684408 58.7627-0.773926 58.7806-0.83252 58.7896-0.94401 58.7896-1.1084ZM62.7173 0 62.0312 0 62.0312-1.32324C62.0312-1.60319 62.0166-1.78426 61.9873-1.86646 61.958-1.94865 61.9104-2.01253 61.8445-2.05811 61.7786-2.10368 61.6992-2.12646 61.6064-2.12646 61.4876-2.12646 61.381-2.09391 61.2866-2.02881 61.1922-1.9637 61.1275-1.87744 61.0925-1.77002 61.0575-1.6626 61.04-1.46403 61.04-1.17432L61.04 0 60.354 0 60.354-2.59277 60.9912-2.59277 60.9912-2.21191C61.2174-2.50488 61.5023-2.65137 61.8457-2.65137 61.9971-2.65137 62.1354-2.6241 62.2607-2.56958 62.3861-2.51506 62.4809-2.44548 62.5452-2.36084 62.6095-2.2762 62.6542-2.18018 62.6794-2.07275 62.7047-1.96533 62.7173-1.81152 62.7173-1.61133Z" fill="#FFFFFF" transform="matrix(0.2856 0 0 0.283271 7.71997 40)"/><path d="M0.0585938-2.59277 0.439453-2.59277 0.439453-2.78809C0.439453-3.00618 0.462646-3.16895 0.509033-3.27637 0.55542-3.38379 0.640869-3.47127 0.765381-3.53882 0.889893-3.60636 1.04736-3.64014 1.23779-3.64014 1.43311-3.64014 1.62435-3.61084 1.81152-3.55225L1.71875-3.07373C1.6097-3.09977 1.50472-3.11279 1.40381-3.11279 1.30452-3.11279 1.23332-3.0896 1.19019-3.04321 1.14705-2.99683 1.12549-2.90771 1.12549-2.77588L1.12549-2.59277 1.63818-2.59277 1.63818-2.05322 1.12549-2.05322 1.12549 0 0.439453 0 0.439453-2.05322 0.0585938-2.05322ZM3.01562 0 2.32959 0 2.32959-2.59277 2.9668-2.59277 2.9668-2.22412C3.07585-2.39827 3.17391-2.51302 3.26099-2.56836 3.34806-2.6237 3.44694-2.65137 3.55762-2.65137 3.71387-2.65137 3.86442-2.60824 4.00928-2.52197L3.79688-1.92383C3.68131-1.9987 3.57389-2.03613 3.47461-2.03613 3.37858-2.03613 3.2972-2.00968 3.23047-1.95679 3.16374-1.90389 3.11125-1.80827 3.073-1.66992 3.03475-1.53158 3.01562-1.24186 3.01562-0.800781ZM4.2002-1.33301C4.2002-1.56087 4.25635-1.78141 4.36865-1.99463 4.48096-2.20784 4.64006-2.37061 4.84595-2.48291 5.05184-2.59521 5.28174-2.65137 5.53564-2.65137 5.9279-2.65137 6.24935-2.52401 6.5-2.26929 6.75065-2.01457 6.87598-1.69271 6.87598-1.30371 6.87598-0.911458 6.74943-0.586344 6.49634-0.328369 6.24325-0.0703939 5.92464 0.0585937 5.54053 0.0585938 5.3029 0.0585937 5.07625 0.00488281 4.8606-0.102539 4.64494-0.209961 4.48096-0.367432 4.36865-0.574951 4.25635-0.782471 4.2002-1.03516 4.2002-1.33301ZM4.90332-1.29639C4.90332-1.03923 4.96436-0.842285 5.08643-0.705566 5.2085-0.568848 5.35905-0.500488 5.53809-0.500488 5.71712-0.500488 5.86727-0.568848 5.98853-0.705566 6.10978-0.842285 6.17041-1.04085 6.17041-1.30127 6.17041-1.55518 6.10978-1.75049 5.98853-1.88721 5.86727-2.02393 5.71712-2.09229 5.53809-2.09229 5.35905-2.09229 5.2085-2.02393 5.08643-1.88721 4.96436-1.75049 4.90332-1.55355 4.90332-1.29639ZM7.30762-2.59277 7.93994-2.59277 7.93994-2.23877C8.16618-2.51383 8.43555-2.65137 8.74805-2.65137 8.91406-2.65137 9.05811-2.61719 9.18018-2.54883 9.30225-2.48047 9.40234-2.37712 9.48047-2.23877 9.5944-2.37712 9.71729-2.48047 9.84912-2.54883 9.98096-2.61719 10.1217-2.65137 10.2715-2.65137 10.4619-2.65137 10.623-2.61271 10.7549-2.5354 10.8867-2.45809 10.9852-2.34456 11.0503-2.19482 11.0975-2.08415 11.1211-1.90511 11.1211-1.65771L11.1211 0 10.4351 0 10.4351-1.48193C10.4351-1.73909 10.4115-1.90511 10.3643-1.97998 10.3008-2.07764 10.2031-2.12646 10.0713-2.12646 9.97526-2.12646 9.88493-2.09717 9.80029-2.03857 9.71566-1.97998 9.65462-1.89412 9.61719-1.78101 9.57975-1.66789 9.56104-1.48926 9.56104-1.24512L9.56104 0 8.875 0 8.875-1.4209C8.875-1.67318 8.86279-1.83594 8.83838-1.90918 8.81396-1.98242 8.77612-2.03695 8.72485-2.07275 8.67358-2.10856 8.604-2.12646 8.51611-2.12646 8.41032-2.12646 8.3151-2.09798 8.23047-2.04102 8.14583-1.98405 8.08521-1.90186 8.04858-1.79443 8.01196-1.68701 7.99365-1.50879 7.99365-1.25977L7.99365 0 7.30762 0ZM13.5479-2.59277 13.5479-2.0459 13.0791-2.0459 13.0791-1.00098C13.0791-0.789388 13.0836-0.666097 13.0925-0.631104 13.1015-0.59611 13.1218-0.56722 13.1536-0.544434 13.1853-0.521647 13.224-0.510254 13.2695-0.510254 13.333-0.510254 13.425-0.532227 13.5454-0.576172L13.604-0.0439453C13.4445 0.0244141 13.2638 0.0585937 13.062 0.0585938 12.9383 0.0585937 12.8268 0.0378418 12.7275-0.00366211 12.6283-0.045166 12.5554-0.098877 12.509-0.164795 12.4626-0.230713 12.4305-0.319824 12.4126-0.432129 12.3979-0.511881 12.3906-0.673014 12.3906-0.915527L12.3906-2.0459 12.0757-2.0459 12.0757-2.59277 12.3906-2.59277 12.3906-3.10791 13.0791-3.5083 13.0791-2.59277ZM15.0425-3.5791 15.0425-2.26318C15.2638-2.52197 15.5283-2.65137 15.8359-2.65137 15.9938-2.65137 16.1362-2.62207 16.2632-2.56348 16.3901-2.50488 16.4858-2.43001 16.55-2.33887 16.6143-2.24772 16.6583-2.14681 16.6819-2.03613 16.7055-1.92546 16.7173-1.75374 16.7173-1.521L16.7173 0 16.0312 0 16.0312-1.36963C16.0312-1.64144 16.0182-1.81396 15.9922-1.88721 15.9661-1.96045 15.9202-2.01864 15.8542-2.06177 15.7883-2.1049 15.7057-2.12646 15.6064-2.12646 15.4925-2.12646 15.3908-2.0988 15.3013-2.04346 15.2118-1.98812 15.1462-1.9047 15.1047-1.79321 15.0632-1.68172 15.0425-1.51693 15.0425-1.29883L15.0425 0 14.3564 0 14.3564-3.5791ZM18.8604-0.825195 19.5439-0.710449C19.4561-0.459798 19.3173-0.268962 19.1277-0.137939 18.9381-0.00691732 18.7008 0.0585937 18.416 0.0585938 17.9652 0.0585937 17.6315-0.0887044 17.415-0.383301 17.2441-0.619303 17.1587-0.917155 17.1587-1.27686 17.1587-1.70654 17.271-2.04305 17.4956-2.28638 17.7202-2.5297 18.0042-2.65137 18.3477-2.65137 18.7334-2.65137 19.0378-2.52401 19.2607-2.26929 19.4837-2.01457 19.5903-1.62435 19.5806-1.09863L17.8618-1.09863C17.8667-0.895182 17.922-0.736898 18.0278-0.623779 18.1336-0.510661 18.2655-0.454102 18.4233-0.454102 18.5308-0.454102 18.6211-0.483398 18.6943-0.541992 18.7676-0.600586 18.8229-0.694987 18.8604-0.825195ZM18.8994-1.51855C18.8945-1.71712 18.8433-1.86808 18.7456-1.97144 18.6479-2.07479 18.5291-2.12646 18.3892-2.12646 18.2394-2.12646 18.1157-2.07194 18.0181-1.96289 17.9204-1.85384 17.8724-1.70573 17.874-1.51855ZM21.3711 0 21.3711-3.5791 22.0742-3.5791 23.5391-1.18896 23.5391-3.5791 24.2104-3.5791 24.2104 0 23.4854 0 22.0425-2.33398 22.0425 0ZM25.2002-1.33301C25.2002-1.56087 25.2563-1.78141 25.3687-1.99463 25.481-2.20784 25.6401-2.37061 25.8459-2.48291 26.0518-2.59521 26.2817-2.65137 26.5356-2.65137 26.9279-2.65137 27.2493-2.52401 27.5-2.26929 27.7506-2.01457 27.876-1.69271 27.876-1.30371 27.876-0.911458 27.7494-0.586344 27.4963-0.328369 27.2432-0.0703939 26.9246 0.0585937 26.5405 0.0585938 26.3029 0.0585937 26.0763 0.00488281 25.8606-0.102539 25.6449-0.209961 25.481-0.367432 25.3687-0.574951 25.2563-0.782471 25.2002-1.03516 25.2002-1.33301ZM25.9033-1.29639C25.9033-1.03923 25.9644-0.842285 26.0864-0.705566 26.2085-0.568848 26.359-0.500488 26.5381-0.500488 26.7171-0.500488 26.8673-0.568848 26.9885-0.705566 27.1098-0.842285 27.1704-1.04085 27.1704-1.30127 27.1704-1.55518 27.1098-1.75049 26.9885-1.88721 26.8673-2.02393 26.7171-2.09229 26.5381-2.09229 26.359-2.09229 26.2085-2.02393 26.0864-1.88721 25.9644-1.75049 25.9033-1.55355 25.9033-1.29639ZM30.0654 0 30.0654-0.388184C29.971-0.249837 29.8469-0.140788 29.6931-0.0610352 29.5393 0.0187174 29.377 0.0585937 29.2061 0.0585938 29.0319 0.0585937 28.8757 0.020345 28.7373-0.0561523 28.599-0.13265 28.4989-0.240072 28.437-0.378418 28.3752-0.516764 28.3442-0.708008 28.3442-0.952148L28.3442-2.59277 29.0303-2.59277 29.0303-1.40137C29.0303-1.03678 29.0429-0.813395 29.0681-0.731201 29.0933-0.649007 29.1393-0.583903 29.2061-0.535889 29.2728-0.487874 29.3574-0.463867 29.46-0.463867 29.5771-0.463867 29.6821-0.496012 29.7749-0.560303 29.8677-0.624593 29.9312-0.704346 29.9653-0.799561 29.9995-0.894775 30.0166-1.12793 30.0166-1.49902L30.0166-2.59277 30.7026-2.59277 30.7026 0ZM33.7173 0 33.0312 0 33.0312-1.32324C33.0312-1.60319 33.0166-1.78426 32.9873-1.86646 32.958-1.94865 32.9104-2.01253 32.8445-2.05811 32.7786-2.10368 32.6992-2.12646 32.6064-2.12646 32.4876-2.12646 32.381-2.09391 32.2866-2.02881 32.1922-1.9637 32.1275-1.87744 32.0925-1.77002 32.0575-1.6626 32.04-1.46403 32.04-1.17432L32.04 0 31.354 0 31.354-2.59277 31.9912-2.59277 31.9912-2.21191C32.2174-2.50488 32.5023-2.65137 32.8457-2.65137 32.9971-2.65137 33.1354-2.6241 33.2607-2.56958 33.3861-2.51506 33.4809-2.44548 33.5452-2.36084 33.6095-2.2762 33.6542-2.18018 33.6794-2.07275 33.7047-1.96533 33.7173-1.81152 33.7173-1.61133ZM35.3638 0 35.3638-3.5791 36.5234-3.5791C36.9629-3.5791 37.2493-3.5612 37.3828-3.52539 37.5879-3.47168 37.7596-3.3549 37.8979-3.17505 38.0363-2.9952 38.1055-2.76286 38.1055-2.47803 38.1055-2.2583 38.0656-2.07357 37.9858-1.92383 37.9061-1.77409 37.8048-1.65649 37.6819-1.57104 37.559-1.4856 37.4341-1.42904 37.3071-1.40137 37.1346-1.36719 36.8848-1.3501 36.5576-1.3501L36.0864-1.3501 36.0864 0ZM36.0864-2.97363 36.0864-1.95801 36.4819-1.95801C36.7668-1.95801 36.9572-1.97673 37.0532-2.01416 37.1493-2.05159 37.2245-2.11019 37.2791-2.18994 37.3336-2.26969 37.3608-2.36247 37.3608-2.46826 37.3608-2.59847 37.3226-2.70589 37.2461-2.79053 37.1696-2.87516 37.0728-2.92806 36.9556-2.94922 36.8693-2.96549 36.696-2.97363 36.4355-2.97363ZM39.0156 0 38.3296 0 38.3296-2.59277 38.9668-2.59277 38.9668-2.22412C39.0758-2.39827 39.1739-2.51302 39.261-2.56836 39.3481-2.6237 39.4469-2.65137 39.5576-2.65137 39.7139-2.65137 39.8644-2.60824 40.0093-2.52197L39.7969-1.92383C39.6813-1.9987 39.5739-2.03613 39.4746-2.03613 39.3786-2.03613 39.2972-2.00968 39.2305-1.95679 39.1637-1.90389 39.1112-1.80827 39.073-1.66992 39.0347-1.53158 39.0156-1.24186 39.0156-0.800781ZM40.2002-1.33301C40.2002-1.56087 40.2563-1.78141 40.3687-1.99463 40.481-2.20784 40.6401-2.37061 40.8459-2.48291 41.0518-2.59521 41.2817-2.65137 41.5356-2.65137 41.9279-2.65137 42.2493-2.52401 42.5-2.26929 42.7506-2.01457 42.876-1.69271 42.876-1.30371 42.876-0.911458 42.7494-0.586344 42.4963-0.328369 42.2432-0.0703939 41.9246 0.0585937 41.5405 0.0585938 41.3029 0.0585937 41.0763 0.00488281 40.8606-0.102539 40.6449-0.209961 40.481-0.367432 40.3687-0.574951 40.2563-0.782471 40.2002-1.03516 40.2002-1.33301ZM40.9033-1.29639C40.9033-1.03923 40.9644-0.842285 41.0864-0.705566 41.2085-0.568848 41.359-0.500488 41.5381-0.500488 41.7171-0.500488 41.8673-0.568848 41.9885-0.705566 42.1098-0.842285 42.1704-1.04085 42.1704-1.30127 42.1704-1.55518 42.1098-1.75049 41.9885-1.88721 41.8673-2.02393 41.7171-2.09229 41.5381-2.09229 41.359-2.09229 41.2085-2.02393 41.0864-1.88721 40.9644-1.75049 40.9033-1.55355 40.9033-1.29639ZM43.3442-2.94434 43.3442-3.5791 44.0303-3.5791 44.0303-2.94434ZM44.0303-2.59277 44.0303-0.0805664C44.0303 0.249837 44.0087 0.482992 43.9656 0.618896 43.9224 0.754801 43.8394 0.861003 43.7166 0.9375 43.5937 1.014 43.437 1.05225 43.2466 1.05225 43.1782 1.05225 43.1046 1.04614 43.0256 1.03394 42.9467 1.02173 42.8617 1.00342 42.7705 0.979004L42.8901 0.393066C42.9227 0.399577 42.9532 0.404867 42.9817 0.408936 43.0102 0.413005 43.0366 0.415039 43.061 0.415039 43.131 0.415039 43.1884 0.399984 43.2332 0.369873 43.2779 0.339762 43.3076 0.303548 43.3223 0.26123 43.3369 0.218913 43.3442 0.0919596 43.3442-0.119629L43.3442-2.59277ZM45.8604-0.825195 46.5439-0.710449C46.4561-0.459798 46.3173-0.268962 46.1277-0.137939 45.9381-0.00691732 45.7008 0.0585937 45.416 0.0585938 44.9652 0.0585937 44.6315-0.0887044 44.415-0.383301 44.2441-0.619303 44.1587-0.917155 44.1587-1.27686 44.1587-1.70654 44.271-2.04305 44.4956-2.28638 44.7202-2.5297 45.0042-2.65137 45.3477-2.65137 45.7334-2.65137 46.0378-2.52401 46.2607-2.26929 46.4837-2.01457 46.5903-1.62435 46.5806-1.09863L44.8618-1.09863C44.8667-0.895182 44.922-0.736898 45.0278-0.623779 45.1336-0.510661 45.2655-0.454102 45.4233-0.454102 45.5308-0.454102 45.6211-0.483398 45.6943-0.541992 45.7676-0.600586 45.8229-0.694987 45.8604-0.825195ZM45.8994-1.51855C45.8945-1.71712 45.8433-1.86808 45.7456-1.97144 45.6479-2.07479 45.5291-2.12646 45.3892-2.12646 45.2394-2.12646 45.1157-2.07194 45.0181-1.96289 44.9204-1.85384 44.8724-1.70573 44.874-1.51855ZM49.6196-1.82617 48.9434-1.7041C48.9206-1.83919 48.8689-1.94092 48.7883-2.00928 48.7078-2.07764 48.6032-2.11182 48.4746-2.11182 48.3037-2.11182 48.1674-2.05282 48.0657-1.93481 47.9639-1.81681 47.9131-1.61947 47.9131-1.34277 47.9131-1.03516 47.9648-0.817871 48.0681-0.690918 48.1715-0.563965 48.3102-0.500488 48.4844-0.500488 48.6146-0.500488 48.7212-0.537516 48.8042-0.611572 48.8872-0.685628 48.9458-0.812988 48.98-0.993652L49.6538-0.878906C49.5838-0.569661 49.4495-0.3361 49.251-0.178223 49.0524-0.0203451 48.7863 0.0585937 48.4526 0.0585938 48.0734 0.0585937 47.7711-0.0610352 47.5457-0.300293 47.3202-0.539551 47.2075-0.870768 47.2075-1.29395 47.2075-1.72201 47.3206-2.05526 47.5469-2.2937 47.7731-2.53215 48.0791-2.65137 48.4648-2.65137 48.7806-2.65137 49.0317-2.58341 49.218-2.44751 49.4044-2.3116 49.5382-2.10449 49.6196-1.82617ZM51.5479-2.59277 51.5479-2.0459 51.0791-2.0459 51.0791-1.00098C51.0791-0.789388 51.0836-0.666097 51.0925-0.631104 51.1015-0.59611 51.1218-0.56722 51.1536-0.544434 51.1853-0.521647 51.224-0.510254 51.2695-0.510254 51.333-0.510254 51.425-0.532227 51.5454-0.576172L51.604-0.0439453C51.4445 0.0244141 51.2638 0.0585937 51.062 0.0585938 50.9383 0.0585937 50.8268 0.0378418 50.7275-0.00366211 50.6283-0.045166 50.5554-0.098877 50.509-0.164795 50.4626-0.230713 50.4305-0.319824 50.4126-0.432129 50.3979-0.511881 50.3906-0.673014 50.3906-0.915527L50.3906-2.0459 50.0757-2.0459 50.0757-2.59277 50.3906-2.59277 50.3906-3.10791 51.0791-3.5083 51.0791-2.59277Z" fill="#FFFFFF" transform="matrix(0.2856 0 0 0.283271 7.71997 42)"/></g></g></g></g></g><g clip-path="url(#clip7)"><g clip-path="url(#clip8)"><g clip-path="url(#clip9)"><path d="M13.9136 9.97004C10.6366 9.97004 7.97048 12.6361 7.97048 15.9132 7.97048 19.1902 10.6366 21.8563 13.9136 21.8563 17.1907 21.8563 19.8568 19.1902 19.8568 15.9132 19.8845 12.6361 17.2185 9.97004 13.9136 9.97004ZM18.7181 16.3575C18.4682 16.3575 18.2738 16.1631 18.2738 15.9132 18.2738 13.497 16.3298 11.553 13.9136 11.553 13.6637 11.553 13.4693 11.3586 13.4693 11.1087 13.4693 10.8587 13.6637 10.6643 13.9136 10.6643 16.8019 10.6643 19.1347 12.9972 19.1347 15.8854 19.1347 16.1631 18.9403 16.3575 18.7181 16.3575ZM23.6337 10.1644C23.3838 10.1644 23.1894 10.3588 23.1894 10.6366 23.1894 10.8865 23.3838 11.1087 23.6615 11.1087 23.7726 11.1087 23.9114 11.0531 23.9948 10.9698 24.0781 10.8865 24.1336 10.7754 24.1336 10.6366 24.0781 10.3866 23.8837 10.1644 23.6337 10.1644ZM23.6337 10.1644C23.3838 10.1644 23.1894 10.3588 23.1894 10.6366 23.1894 10.8865 23.3838 11.1087 23.6615 11.1087 23.7726 11.1087 23.9114 11.0531 23.9948 10.9698 24.0781 10.8865 24.1336 10.7754 24.1336 10.6366 24.0781 10.3866 23.8837 10.1644 23.6337 10.1644ZM13.9136 9.97004C10.6366 9.97004 7.97048 12.6361 7.97048 15.9132 7.97048 19.1902 10.6366 21.8563 13.9136 21.8563 17.1907 21.8563 19.8568 19.1902 19.8568 15.9132 19.8845 12.6361 17.2185 9.97004 13.9136 9.97004ZM18.7181 16.3575C18.4682 16.3575 18.2738 16.1631 18.2738 15.9132 18.2738 13.497 16.3298 11.553 13.9136 11.553 13.6637 11.553 13.4693 11.3586 13.4693 11.1087 13.4693 10.8587 13.6637 10.6643 13.9136 10.6643 16.8019 10.6643 19.1347 12.9972 19.1347 15.8854 19.1347 16.1631 18.9403 16.3575 18.7181 16.3575ZM24.6057 7.85939 20.9399 7.85939C19.7735 7.85939 18.7459 7.10956 18.4126 6.02646L18.0516 4.97114C17.8017 4.2213 17.1074 3.72141 16.3298 3.72141L11.4419 3.72141C10.6643 3.72141 9.97004 4.2213 9.7201 4.97114L9.38684 6.02646C9.0258 7.13733 7.99825 7.85939 6.83184 7.85939L3.19375 7.85939C2.19396 7.85939 1.38859 8.66477 1.38859 9.66455L1.38859 22.2451C1.38859 23.2449 2.19396 24.0503 3.19375 24.0503L24.6057 24.0503C25.6055 24.0503 26.4109 23.2449 26.4109 22.2451L26.4109 9.66455C26.3831 8.66477 25.5777 7.88716 24.6057 7.85939ZM13.9136 22.745C10.1367 22.745 7.08178 19.6901 7.08178 15.9132 7.08178 12.1362 10.1367 9.08135 13.9136 9.08135 15.8021 9.08135 17.4962 9.85896 18.7459 11.0809 19.9956 12.3029 20.7455 14.0247 20.7455 15.9132 20.7455 19.6901 17.6906 22.745 13.9136 22.745ZM23.6337 11.9696C22.9117 11.9696 22.3007 11.3864 22.3007 10.6366 22.3007 9.88673 22.8839 9.30352 23.6337 9.30352 23.9948 9.30352 24.328 9.44238 24.578 9.69233 24.8279 9.94227 24.9668 10.2755 24.9668 10.6366 24.9668 11.3586 24.3558 11.9696 23.6337 11.9696ZM23.6337 10.1644C23.3838 10.1644 23.1894 10.3588 23.1894 10.6366 23.1894 10.8865 23.3838 11.1087 23.6615 11.1087 23.7726 11.1087 23.9114 11.0531 23.9948 10.9698 24.0781 10.8865 24.1336 10.7754 24.1336 10.6366 24.0781 10.3866 23.8837 10.1644 23.6337 10.1644ZM13.9136 9.97004C10.6366 9.97004 7.97048 12.6361 7.97048 15.9132 7.97048 19.1902 10.6366 21.8563 13.9136 21.8563 17.1907 21.8563 19.8568 19.1902 19.8568 15.9132 19.8845 12.6361 17.2185 9.97004 13.9136 9.97004ZM18.7181 16.3575C18.4682 16.3575 18.2738 16.1631 18.2738 15.9132 18.2738 13.497 16.3298 11.553 13.9136 11.553 13.6637 11.553 13.4693 11.3586 13.4693 11.1087 13.4693 10.8587 13.6637 10.6643 13.9136 10.6643 16.8019 10.6643 19.1347 12.9972 19.1347 15.8854 19.1347 16.1631 18.9403 16.3575 18.7181 16.3575ZM13.9136 9.97004C10.6366 9.97004 7.97048 12.6361 7.97048 15.9132 7.97048 19.1902 10.6366 21.8563 13.9136 21.8563 17.1907 21.8563 19.8568 19.1902 19.8568 15.9132 19.8845 12.6361 17.2185 9.97004 13.9136 9.97004ZM18.7181 16.3575C18.4682 16.3575 18.2738 16.1631 18.2738 15.9132 18.2738 13.497 16.3298 11.553 13.9136 11.553 13.6637 11.553 13.4693 11.3586 13.4693 11.1087 13.4693 10.8587 13.6637 10.6643 13.9136 10.6643 16.8019 10.6643 19.1347 12.9972 19.1347 15.8854 19.1347 16.1631 18.9403 16.3575 18.7181 16.3575ZM13.9136 9.97004C10.6366 9.97004 7.97048 12.6361 7.97048 15.9132 7.97048 19.1902 10.6366 21.8563 13.9136 21.8563 17.1907 21.8563 19.8568 19.1902 19.8568 15.9132 19.8845 12.6361 17.2185 9.97004 13.9136 9.97004ZM18.7181 16.3575C18.4682 16.3575 18.2738 16.1631 18.2738 15.9132 18.2738 13.497 16.3298 11.553 13.9136 11.553 13.6637 11.553 13.4693 11.3586 13.4693 11.1087 13.4693 10.8587 13.6637 10.6643 13.9136 10.6643 16.8019 10.6643 19.1347 12.9972 19.1347 15.8854 19.1347 16.1631 18.9403 16.3575 18.7181 16.3575Z" fill="#FFFFFF" transform="matrix(1.00822 0 0 1 1082 637)"/><text fill="#FFFFFF" font-family="Arial,Arial_MSFontService,sans-serif" font-weight="700" font-size="5" transform="matrix(0.28 0 0 0.277717 1082 669)">Created by Riyan Resdian<tspan font-size="5" x="0" y="3.60079">from the Noun Project</tspan></text></g></g></g></g></svg>