<svg width="55" height="54" xmlns="http://www.w3.org/2000/svg" xmlns:xlink="http://www.w3.org/1999/xlink" xml:space="preserve" overflow="hidden"><defs><filter id="fx0" x="-10%" y="-10%" width="120%" height="120%" filterUnits="userSpaceOnUse" primitiveUnits="userSpaceOnUse"><feComponentTransfer color-interpolation-filters="sRGB"><feFuncR type="discrete" tableValues="0 0"/><feFuncG type="discrete" tableValues="0 0"/><feFuncB type="discrete" tableValues="0 0"/><feFuncA type="linear" slope="0.4" intercept="0"/></feComponentTransfer><feGaussianBlur stdDeviation="2.22222 2.22222"/></filter><clipPath id="clip1"><rect x="979" y="397" width="55" height="54"/></clipPath><clipPath id="clip2"><rect x="-4" y="-4" width="62" height="62"/></clipPath><clipPath id="clip3"><rect x="0" y="0" width="55" height="54"/></clipPath><clipPath id="clip4"><rect x="7" y="7" width="41" height="40"/></clipPath><clipPath id="clip5"><rect x="7" y="7" width="41" height="40"/></clipPath><clipPath id="clip6"><rect x="7" y="7" width="41" height="40"/></clipPath><clipPath id="clip7"><rect x="987" y="405" width="39" height="38"/></clipPath><clipPath id="clip8"><rect x="987" y="405" width="39" height="38"/></clipPath><clipPath id="clip9"><rect x="987" y="405" width="39" height="38"/></clipPath></defs><g clip-path="url(#clip1)" transform="translate(-979 -397)"><g clip-path="url(#clip2)" filter="url(#fx0)" transform="translate(979 397)"><g clip-path="url(#clip3)"><g clip-path="url(#clip4)"><g clip-path="url(#clip5)"><g clip-path="url(#clip6)"><path d="M825.123 461.998 815.699 471.422 805.888 474.994 809.46 465.117 812.551 462.026 800.016 462.026 800.016 483.627C800.016 483.627 797.679 480.998 794.183 486.841L794.183 490.045 831.551 490.045 831.551 461.998Z" fill="#FFFFFF" transform="matrix(1.00188 0 0 1 -785.724 -443.682)"/><path d="M797.679 481.261 797.679 454.109C791.845 452.941 791.845 458.322 791.845 458.322L791.845 484.475C795.351 478.632 797.679 481.261 797.679 481.261Z" fill="#FFFFFF" transform="matrix(1.00188 0 0 1 -785.724 -443.682)"/><path d="M812.125 457.394 830.728 457.394 830.728 463.809 812.125 463.809Z" fill="#FFFFFF" transform="matrix(0.707772 -0.706444 0.707772 0.706444 -870.911 271.391)"/><path d="M18.8584 14.2592 18.6888 14.4383 16.1064 21.5632 23.1748 18.9998 23.3916 18.7924 18.8584 14.2592Z" fill="#FFFFFF" transform="matrix(1.00188 0 0 1 7.60999 7.65625)"/></g></g></g></g></g><g clip-path="url(#clip7)"><g clip-path="url(#clip8)"><g clip-path="url(#clip9)"><path d="M808.944 452.939 799.705 462.179 790.086 465.681 793.588 455.997 796.619 452.967 784.33 452.967 784.33 474.144C784.33 474.144 782.038 471.566 778.611 477.295L778.611 480.436 815.246 480.436 815.246 452.939Z" fill="#FFFFFF" transform="matrix(1.00188 0 0 1 209.222 -37.4534)"/><path d="M782.038 471.825 782.038 445.205C776.319 444.06 776.319 449.336 776.319 449.336L776.319 474.976C779.756 469.247 782.038 471.825 782.038 471.825Z" fill="#FFFFFF" transform="matrix(1.00188 0 0 1 209.222 -37.4534)"/><path d="M796.201 448.426 814.439 448.426 814.439 454.715 796.201 454.715Z" fill="#FFFFFF" transform="matrix(0.707772 -0.706444 0.707772 0.706444 125.704 663.599)"/><path d="M18.4886 13.9797 18.3223 14.1552 15.7906 21.1404 22.7204 18.6272 22.9329 18.424 18.4886 13.9797Z" fill="#FFFFFF" transform="matrix(1.00188 0 0 1 987 405.036)"/></g></g></g></g></svg>