<svg width="238" height="41" xmlns="http://www.w3.org/2000/svg" xmlns:xlink="http://www.w3.org/1999/xlink" xml:space="preserve" overflow="hidden"><defs><clipPath id="clip0"><rect x="933" y="661" width="238" height="41"/></clipPath><clipPath id="clip1"><rect x="933" y="661" width="44" height="41"/></clipPath><clipPath id="clip2"><rect x="1031" y="662" width="150" height="41"/></clipPath></defs><g clip-path="url(#clip0)" transform="translate(-933 -661)"><g clip-path="url(#clip1)"><path d="M0 0 43.2626 0 43.2626 40.9168-1.38563e-06 40.9168Z" fill="#283384" transform="matrix(1.00469 0 0 1 933.331 661)"/><path d="M0.00756737 36.8531 43.2551 36.8531 43.2551 40.9092 0.00756725 40.9092Z" fill="#DC052B" transform="matrix(1.00469 0 0 1 933.331 661)"/><path d="M326.797 750.683 320.69 750.683 320.69 748.814C320.744 748.245 320.663 747.673 320.455 747.141 320.283 746.898 319.997 746.76 319.699 746.778 319.331 746.765 318.986 746.954 318.798 747.27 318.564 747.723 318.46 748.23 318.495 748.738 318.459 749.392 318.576 750.044 318.836 750.645 319.326 751.292 319.964 751.811 320.698 752.159 323.618 753.899 325.46 755.324 326.222 756.434 326.978 757.547 327.364 759.348 327.364 761.822 327.442 763.177 327.227 764.539 326.736 765.802 326.186 766.771 325.325 767.528 324.292 767.952 322.967 768.557 321.525 768.852 320.069 768.822 318.509 768.867 316.961 768.527 315.567 767.823 314.464 767.308 313.592 766.4 313.123 765.273 312.682 763.85 312.487 762.367 312.547 760.884L312.547 759.234 318.654 759.234 318.654 762.306C318.598 762.927 318.685 763.555 318.912 764.138 319.122 764.425 319.467 764.577 319.82 764.539 320.215 764.562 320.59 764.365 320.796 764.024 321.037 763.555 321.15 763.033 321.121 762.511 321.121 760.997 320.917 760.044 320.508 759.59 319.564 758.727 318.535 757.97 317.436 757.32 316.302 756.604 315.214 755.815 314.182 754.958 313.599 754.388 313.15 753.695 312.865 752.93 312.485 751.868 312.308 750.743 312.343 749.616 312.251 748.161 312.51 746.705 313.1 745.371 313.647 744.425 314.49 743.685 315.499 743.267 316.76 742.729 318.123 742.471 319.494 742.51 320.992 742.468 322.482 742.749 323.861 743.335 324.88 743.722 325.727 744.464 326.244 745.424 326.722 746.793 326.922 748.244 326.835 749.692Z" fill="#FFFFFF" transform="matrix(1.00469 0 0 1 621.477 -77.6357)"/><path d="M328.424 743.025 333.343 743.025C335.499 742.941 337.657 743.088 339.782 743.464 340.761 743.672 341.653 744.173 342.34 744.901 342.902 745.528 343.28 746.298 343.43 747.126 343.618 748.726 343.691 750.337 343.649 751.947L343.649 760.8C343.711 762.322 343.605 763.843 343.332 765.341 343.159 766.045 342.767 766.673 342.212 767.142 341.637 767.596 340.962 767.906 340.244 768.042 339.08 768.247 337.899 768.338 336.718 768.307L328.424 768.307ZM335 747.353 335 764.001C335.946 764.001 336.513 763.812 336.748 763.426 336.982 763.04 337.073 762.019 337.073 760.331L337.073 750.494C337.097 749.758 337.061 749.022 336.967 748.292 336.911 747.994 336.728 747.735 336.468 747.58 336.003 747.392 335.5 747.315 335 747.353" fill="#FFFFFF" transform="matrix(1.00469 0 0 1 621.477 -77.6357)"/><path d="M34.7645 4.38907 41.3405 4.38907 41.3405 29.6716 34.7645 29.6716Z" fill="#FFFFFF" transform="matrix(1.00469 0 0 1 933.331 661)"/><path d="M312.911 773.166 312.911 771.652 313.092 771.652C313.159 771.645 313.226 771.66 313.281 771.698 313.334 771.728 313.375 771.773 313.395 771.834 313.424 771.902 313.441 771.977 313.448 772.053 313.448 772.144 313.448 772.25 313.448 772.371 313.448 772.492 313.448 772.636 313.448 772.734 313.446 772.817 313.428 772.893 313.395 772.969 313.375 773.022 313.337 773.067 313.289 773.097 313.232 773.12 313.17 773.135 313.107 773.135ZM312.487 771.365 312.487 773.476 313.16 773.476C313.279 773.476 313.397 773.461 313.509 773.415 313.601 773.37 313.68 773.302 313.736 773.211 313.795 773.105 313.833 772.999 313.849 772.878 313.862 772.719 313.862 772.553 313.849 772.394 313.857 772.25 313.857 772.114 313.849 771.97 313.837 771.856 313.801 771.743 313.743 771.645 313.698 771.554 313.624 771.478 313.531 771.44 313.421 771.387 313.299 771.357 313.176 771.365Z" fill="#FFFFFF" fill-rule="evenodd" transform="matrix(1.00469 0 0 1 621.477 -77.6357)"/><path d="M4.9869 32.7289 3.80639 32.7289 3.80639 34.8402 5.01717 34.8402 5.01717 34.4921 4.23016 34.4921 4.23016 33.9245 4.94149 33.9245 4.94149 33.5764 4.23016 33.5764 4.23016 33.077 4.9869 33.077 4.9869 32.7289Z" fill="#FFFFFF" fill-rule="evenodd" transform="matrix(1.00469 0 0 1 933.331 661)"/><path d="M316.006 772.817 315.559 772.817 315.559 772.901C315.549 773.067 315.604 773.226 315.711 773.355 315.859 773.468 316.045 773.529 316.233 773.514 316.423 773.521 316.613 773.468 316.77 773.362 316.909 773.241 316.981 773.06 316.967 772.87 316.971 772.81 316.971 772.757 316.967 772.696 316.952 772.643 316.929 772.59 316.899 772.545 316.865 772.5 316.824 772.462 316.778 772.424L316.581 772.31 316.248 772.167C316.178 772.144 316.117 772.106 316.074 772.046 316.042 771.993 316.026 771.94 316.028 771.879 316.025 771.849 316.025 771.819 316.028 771.788 316.03 771.758 316.044 771.735 316.066 771.713 316.084 771.69 316.112 771.667 316.142 771.66 316.179 771.652 316.218 771.652 316.255 771.66 316.326 771.652 316.394 771.69 316.437 771.743 316.478 771.811 316.496 771.894 316.49 771.97L316.899 771.97 316.899 771.872C316.903 771.781 316.885 771.698 316.846 771.614 316.818 771.539 316.771 771.478 316.709 771.433 316.651 771.38 316.581 771.349 316.505 771.334 316.42 771.319 316.333 771.319 316.248 771.334 316.073 771.319 315.9 771.372 315.764 771.486 315.639 771.607 315.576 771.781 315.59 771.955 315.578 772.03 315.578 772.106 315.59 772.182 315.613 772.25 315.649 772.303 315.695 772.356 315.745 772.409 315.804 772.454 315.87 772.492L316.112 772.59C316.175 772.606 316.236 772.636 316.293 772.666 316.335 772.681 316.373 772.704 316.407 772.734 316.436 772.757 316.458 772.795 316.467 772.833 316.476 772.87 316.476 772.916 316.467 772.954 316.475 773.029 316.447 773.097 316.392 773.15 316.343 773.188 316.281 773.211 316.218 773.211 316.17 773.219 316.122 773.219 316.074 773.211 316.042 773.196 316.013 773.173 315.991 773.15 315.968 773.12 315.952 773.082 315.945 773.044 315.941 772.999 315.941 772.954 315.945 772.908Z" fill="#FFFFFF" fill-rule="evenodd" transform="matrix(1.00469 0 0 1 621.477 -77.6357)"/><path d="M8.02141 32.7289 6.8409 32.7289 6.8409 34.8402 8.05168 34.8402 8.05168 34.4921 7.27224 34.4921 7.27224 33.9245 7.97601 33.9245 7.97601 33.5764 7.27224 33.5764 7.27224 33.077 8.02141 33.077 8.02141 32.7289Z" fill="#FFFFFF" fill-rule="evenodd" transform="matrix(1.00469 0 0 1 933.331 661)"/><path d="M8.80085 32.7289 8.3014 32.7289 8.3014 34.8402 8.69491 34.8402 8.69491 33.357 8.70247 33.357 9.22462 34.8402 9.70893 34.8402 9.70893 32.7289 9.31543 32.7289 9.31543 34.1742 9.31543 34.1742 8.80085 32.7289Z" fill="#FFFFFF" fill-rule="evenodd" transform="matrix(1.00469 0 0 1 933.331 661)"/><path d="M10.3597 32.7289 9.90569 32.7289 10.39 34.8402 10.9348 34.8402 11.4267 32.7289 10.9803 32.7289 10.67 34.2877 10.6624 34.2877 10.3597 32.7289Z" fill="#FFFFFF" fill-rule="evenodd" transform="matrix(1.00469 0 0 1 933.331 661)"/><path d="M322.37 772.424C322.37 772.28 322.37 772.159 322.37 772.061 322.376 771.977 322.389 771.902 322.408 771.819 322.424 771.766 322.455 771.72 322.499 771.682 322.542 771.652 322.595 771.637 322.65 771.637 322.704 771.637 322.758 771.652 322.801 771.682 322.849 771.713 322.882 771.766 322.892 771.819 322.918 771.894 322.933 771.977 322.937 772.061 322.937 772.159 322.937 772.28 322.937 772.424 322.937 772.568 322.937 772.681 322.937 772.787 322.932 772.87 322.917 772.954 322.892 773.029 322.881 773.082 322.848 773.135 322.801 773.166 322.752 773.181 322.699 773.181 322.65 773.166 322.6 773.181 322.548 773.181 322.499 773.166 322.457 773.128 322.425 773.082 322.408 773.029 322.389 772.946 322.377 772.87 322.37 772.787 322.37 772.681 322.37 772.56 322.37 772.424M321.939 772.424C321.93 772.568 321.93 772.719 321.939 772.863 321.948 772.984 321.982 773.105 322.037 773.211 322.086 773.302 322.163 773.385 322.256 773.43 322.373 773.491 322.504 773.521 322.635 773.514 322.769 773.521 322.902 773.491 323.021 773.43 323.115 773.385 323.192 773.302 323.24 773.211 323.292 773.105 323.323 772.984 323.331 772.863 323.343 772.719 323.343 772.568 323.331 772.424 323.343 772.273 323.343 772.129 323.331 771.977 323.323 771.856 323.292 771.735 323.24 771.629 323.189 771.531 323.114 771.455 323.021 771.402 322.902 771.342 322.769 771.312 322.635 771.319 322.504 771.312 322.373 771.342 322.256 771.402 322.163 771.455 322.088 771.531 322.037 771.629 321.982 771.735 321.948 771.856 321.939 771.977 321.93 772.129 321.93 772.273 321.939 772.424" fill="#FFFFFF" fill-rule="evenodd" transform="matrix(1.00469 0 0 1 621.477 -77.6357)"/><path d="M13.3034 34.8402 14.4839 34.8402 14.4839 34.4921 13.7272 34.4921 13.7272 32.7289 13.3034 32.7289 13.3034 34.8402Z" fill="#FFFFFF" fill-rule="evenodd" transform="matrix(1.00469 0 0 1 933.331 661)"/><path d="M14.8093 32.7289 14.3553 32.7289 14.8396 34.8402 15.392 34.8402 15.8763 32.7289 15.4299 32.7289 15.1196 34.2877 15.112 34.2877 14.8093 32.7289Z" fill="#FFFFFF" fill-rule="evenodd" transform="matrix(1.00469 0 0 1 933.331 661)"/><path d="M16.0882 32.7289 16.512 32.7289 16.512 34.8402 16.0882 34.8402Z" fill="#FFFFFF" transform="matrix(1.00469 0 0 1 933.331 661)"/><path d="M16.8828 32.7289 16.8828 34.8402 17.2687 34.8402 17.2687 33.1526 17.2763 33.1526 17.6547 34.8402 17.9876 34.8402 18.3584 33.1526 18.366 33.1526 18.366 34.8402 18.7595 34.8402 18.7595 32.7289 18.1238 32.7289 17.8212 34.2196 17.8136 34.2196 17.5109 32.7289 16.8828 32.7289Z" fill="#FFFFFF" fill-rule="evenodd" transform="matrix(1.00469 0 0 1 933.331 661)"/><path d="M20.2805 32.7289 19.1 32.7289 19.1 34.8402 20.3108 34.8402 20.3108 34.4921 19.5238 34.4921 19.5238 33.9245 20.2351 33.9245 20.2351 33.5764 19.5238 33.5764 19.5238 33.077 20.2805 33.077 20.2805 32.7289Z" fill="#FFFFFF" fill-rule="evenodd" transform="matrix(1.00469 0 0 1 933.331 661)"/><path d="M21.0524 32.7289 20.5605 32.7289 20.5605 34.8402 20.954 34.8402 20.954 33.357 20.9616 33.357 21.4838 34.8402 21.9681 34.8402 21.9681 32.7289 21.5746 32.7289 21.5746 34.1742 21.567 34.1742 21.0524 32.7289Z" fill="#FFFFFF" fill-rule="evenodd" transform="matrix(1.00469 0 0 1 933.331 661)"/><path d="M23.5421 32.7289 22.1875 32.7289 22.1875 33.077 22.6491 33.077 22.6491 34.8402 23.0729 34.8402 23.0729 33.077 23.5421 33.077 23.5421 32.7289Z" fill="#FFFFFF" fill-rule="evenodd" transform="matrix(1.00469 0 0 1 933.331 661)"/><path d="M334.538 772.424C334.538 772.28 334.538 772.159 334.538 772.061 334.543 771.977 334.558 771.894 334.584 771.819 334.6 771.766 334.631 771.72 334.674 771.682 334.766 771.622 334.886 771.622 334.977 771.682 335.02 771.72 335.052 771.766 335.068 771.819 335.075 771.902 335.075 771.977 335.068 772.061 335.068 772.159 335.068 772.28 335.068 772.424 335.068 772.568 335.068 772.681 335.068 772.787 335.074 772.87 335.074 772.946 335.068 773.029 335.051 773.082 335.019 773.128 334.977 773.166 334.883 773.219 334.769 773.219 334.674 773.166 334.633 773.128 334.601 773.082 334.584 773.029 334.559 772.954 334.544 772.87 334.538 772.787 334.538 772.681 334.538 772.56 334.538 772.424M334.114 772.424C334.106 772.568 334.106 772.719 334.114 772.863 334.126 772.984 334.156 773.097 334.205 773.211 334.254 773.302 334.331 773.385 334.425 773.43 334.544 773.491 334.677 773.521 334.811 773.514 334.942 773.521 335.072 773.491 335.189 773.43 335.284 773.385 335.362 773.309 335.408 773.211 335.464 773.105 335.497 772.984 335.507 772.863 335.515 772.719 335.515 772.568 335.507 772.424 335.515 772.273 335.515 772.129 335.507 771.977 335.497 771.856 335.464 771.735 335.408 771.629 335.36 771.531 335.284 771.455 335.189 771.402 335.072 771.342 334.942 771.312 334.811 771.319 334.677 771.312 334.544 771.342 334.425 771.402 334.332 771.455 334.256 771.531 334.205 771.629 334.156 771.743 334.126 771.856 334.114 771.977 334.106 772.129 334.106 772.273 334.114 772.424" fill="#FFFFFF" fill-rule="evenodd" transform="matrix(1.00469 0 0 1 621.477 -77.6357)"/><path d="M26.2134 32.7289 26.6371 32.7289 26.6371 34.8402 26.2134 34.8402Z" fill="#FFFFFF" transform="matrix(1.00469 0 0 1 933.331 661)"/><path d="M27.0079 32.7289 27.0079 34.8402 27.3939 34.8402 27.3939 33.1526 27.4014 33.1526 27.7798 34.8402 28.1128 34.8402 28.4836 33.1526 28.4911 33.1526 28.4911 34.8402 28.8846 34.8402 28.8846 32.7289 28.2566 32.7289 27.9463 34.2196 27.9387 34.2196 27.636 32.7289 27.0079 32.7289Z" fill="#FFFFFF" fill-rule="evenodd" transform="matrix(1.00469 0 0 1 933.331 661)"/><path d="M340.009 772.424C340.009 772.28 340.009 772.159 340.009 772.061 340.012 771.977 340.025 771.894 340.047 771.819 340.063 771.766 340.094 771.72 340.138 771.682 340.182 771.652 340.235 771.637 340.289 771.637 340.344 771.637 340.398 771.652 340.441 771.682 340.485 771.72 340.516 771.766 340.532 771.819 340.558 771.894 340.571 771.977 340.569 772.061 340.569 772.159 340.569 772.28 340.569 772.424 340.569 772.568 340.569 772.681 340.569 772.787 340.57 772.87 340.557 772.954 340.532 773.029 340.514 773.082 340.482 773.128 340.441 773.166 340.392 773.181 340.339 773.181 340.289 773.166 340.239 773.181 340.188 773.181 340.138 773.166 340.096 773.128 340.065 773.082 340.047 773.029 340.025 772.954 340.012 772.87 340.009 772.787 340.009 772.681 340.009 772.56 340.009 772.424M339.578 772.424C339.57 772.568 339.57 772.719 339.578 772.863 339.588 772.984 339.621 773.105 339.676 773.211 339.723 773.309 339.801 773.385 339.896 773.43 340.012 773.491 340.143 773.521 340.274 773.514 340.407 773.521 340.541 773.491 340.66 773.43 340.754 773.385 340.828 773.309 340.872 773.211 340.927 773.105 340.961 772.984 340.97 772.863 340.979 772.719 340.979 772.568 340.97 772.424 340.979 772.273 340.979 772.129 340.97 771.977 340.961 771.856 340.927 771.735 340.872 771.629 340.827 771.531 340.753 771.455 340.66 771.402 340.541 771.342 340.407 771.312 340.274 771.319 340.143 771.312 340.012 771.342 339.896 771.402 339.801 771.455 339.725 771.531 339.676 771.629 339.621 771.735 339.588 771.856 339.578 771.977 339.57 772.129 339.57 772.273 339.578 772.424" fill="#FFFFFF" fill-rule="evenodd" transform="matrix(1.00469 0 0 1 621.477 -77.6357)"/><path d="M341.735 773.166 341.735 772.53 341.916 772.53C341.959 772.522 342.003 772.522 342.045 772.53 342.085 772.537 342.123 772.553 342.151 772.583 342.184 772.606 342.208 772.643 342.219 772.681 342.229 772.734 342.229 772.78 342.219 772.833 342.23 772.923 342.196 773.022 342.128 773.082 342.054 773.128 341.967 773.158 341.879 773.15ZM341.735 772.235 341.735 771.682 341.886 771.682C341.969 771.675 342.053 771.698 342.121 771.743 342.225 771.864 342.225 772.046 342.121 772.167 342.046 772.22 341.954 772.242 341.863 772.235ZM341.311 771.365 341.311 773.476 342.068 773.476C342.173 773.476 342.278 773.461 342.378 773.43 342.454 773.4 342.523 773.355 342.582 773.294 342.636 773.241 342.675 773.173 342.696 773.097 342.704 773.014 342.704 772.939 342.696 772.855 342.7 772.734 342.663 772.621 342.59 772.522 342.523 772.432 342.42 772.379 342.31 772.371L342.31 772.371C342.409 772.348 342.495 772.288 342.552 772.205 342.605 772.114 342.632 772.015 342.628 771.909 342.631 771.819 342.616 771.735 342.582 771.652 342.558 771.584 342.516 771.531 342.461 771.486 342.403 771.448 342.339 771.418 342.272 771.395 342.192 771.387 342.11 771.387 342.03 771.395Z" fill="#FFFFFF" fill-rule="evenodd" transform="matrix(1.00469 0 0 1 621.477 -77.6357)"/><path d="M32.6154 32.7289 33.0391 32.7289 33.0391 34.8402 32.6154 34.8402Z" fill="#FFFFFF" transform="matrix(1.00469 0 0 1 933.331 661)"/><path d="M33.3948 34.8402 34.5829 34.8402 34.5829 34.4921 33.8261 34.4921 33.8261 32.7289 33.3948 32.7289 33.3948 34.8402Z" fill="#FFFFFF" fill-rule="evenodd" transform="matrix(1.00469 0 0 1 933.331 661)"/><path d="M34.825 32.7289 35.2488 32.7289 35.2488 34.8402 34.825 34.8402Z" fill="#FFFFFF" transform="matrix(1.00469 0 0 1 933.331 661)"/><path d="M346.646 770.812 346.487 771.236 346.767 771.236 347.055 770.812ZM346.472 772.681 346.676 771.728 346.676 771.728 346.881 772.681ZM346.419 771.365 345.859 773.476 346.305 773.476 346.404 773.029 346.964 773.029 347.062 773.476 347.501 773.476 346.941 771.365Z" fill="#FFFFFF" fill-rule="evenodd" transform="matrix(1.00469 0 0 1 621.477 -77.6357)"/><path d="M347.69 771.365 347.69 773.476 348.099 773.476 348.099 772.583 348.334 772.583C348.405 772.575 348.476 772.606 348.523 772.659 348.561 772.712 348.582 772.78 348.583 772.848L348.583 773.256C348.583 773.256 348.583 773.34 348.583 773.377 348.592 773.415 348.604 773.446 348.621 773.476L349.09 773.476 349.09 773.476C349.046 773.453 349.015 773.408 349.007 773.355 349.002 773.271 349.002 773.181 349.007 773.097 349.012 773.044 349.012 772.999 349.007 772.946 349.007 772.893 349.007 772.855 349.007 772.81 349.001 772.719 348.969 772.628 348.916 772.553 348.851 772.492 348.769 772.462 348.682 772.454L348.682 772.454C348.791 772.439 348.887 772.371 348.946 772.28 349.009 772.174 349.037 772.053 349.03 771.932 349.043 771.781 348.99 771.629 348.886 771.523 348.77 771.425 348.621 771.38 348.47 771.387ZM348.114 772.288 348.114 771.675 348.318 771.675C348.458 771.652 348.591 771.75 348.614 771.887 348.618 771.917 348.618 771.94 348.614 771.97 348.624 772.061 348.594 772.152 348.53 772.22 348.462 772.265 348.38 772.295 348.296 772.288Z" fill="#FFFFFF" fill-rule="evenodd" transform="matrix(1.00469 0 0 1 621.477 -77.6357)"/><path d="M39.0022 32.7289 39.426 32.7289 39.426 34.8402 39.0022 34.8402Z" fill="#FFFFFF" transform="matrix(1.00469 0 0 1 933.331 661)"/><path d="M350.558 772.424C350.558 772.28 350.558 772.159 350.558 772.061 350.563 771.977 350.578 771.894 350.604 771.819 350.62 771.766 350.651 771.72 350.695 771.682 350.786 771.622 350.906 771.622 350.997 771.682 351.04 771.72 351.072 771.766 351.088 771.819 351.107 771.902 351.12 771.977 351.126 772.061 351.126 772.159 351.126 772.28 351.126 772.424 351.126 772.568 351.126 772.681 351.126 772.787 351.119 772.87 351.107 772.946 351.088 773.029 351.071 773.082 351.039 773.128 350.997 773.166 350.903 773.219 350.789 773.219 350.695 773.166 350.653 773.128 350.621 773.082 350.604 773.029 350.579 772.954 350.564 772.87 350.558 772.787 350.558 772.681 350.558 772.56 350.558 772.424M350.135 772.424C350.126 772.568 350.126 772.719 350.135 772.863 350.146 772.984 350.176 773.097 350.225 773.211 350.275 773.302 350.351 773.385 350.445 773.43 350.564 773.491 350.698 773.521 350.831 773.514 350.962 773.521 351.093 773.491 351.209 773.43 351.307 773.385 351.385 773.309 351.429 773.211 351.484 773.105 351.517 772.984 351.527 772.863 351.535 772.719 351.535 772.568 351.527 772.424 351.535 772.273 351.535 772.129 351.527 771.977 351.517 771.856 351.484 771.735 351.429 771.629 351.382 771.531 351.305 771.455 351.209 771.402 351.093 771.342 350.962 771.312 350.831 771.319 350.698 771.312 350.564 771.342 350.445 771.402 350.352 771.455 350.276 771.531 350.225 771.629 350.176 771.743 350.146 771.856 350.135 771.977 350.126 772.129 350.126 772.273 350.135 772.424" fill="#FFFFFF" fill-rule="evenodd" transform="matrix(1.00469 0 0 1 621.477 -77.6357)"/></g><g clip-path="url(#clip2)"><path d="M541.067 762.034 541.067 763.328 541.824 763.328C542.097 763.343 542.371 763.298 542.626 763.192 542.817 763.078 542.924 762.859 542.898 762.639 542.905 762.458 542.812 762.291 542.656 762.2 542.427 762.072 542.163 762.011 541.899 762.034ZM541.067 766.037 540.098 766.037 540.098 761.277 542.368 761.277C542.67 761.27 542.969 761.33 543.246 761.444 543.47 761.542 543.658 761.709 543.784 761.92 543.908 762.14 543.971 762.382 543.965 762.632 543.968 762.957 543.846 763.267 543.625 763.502 543.374 763.759 543.042 763.918 542.686 763.949 542.881 764.017 543.054 764.138 543.186 764.297 543.373 764.539 543.543 764.789 543.693 765.053L544.253 766.014 543.057 766.014 542.664 765.258C542.528 764.993 542.371 764.743 542.194 764.501 542.01 764.206 541.676 764.047 541.332 764.077L541.067 764.077ZM542.134 760.036C540.845 760.029 539.652 760.71 539.009 761.83 538.362 762.95 538.362 764.327 539.009 765.447 539.655 766.559 540.847 767.24 542.134 767.24 543.417 767.248 544.605 766.559 545.244 765.447 546.251 763.744 545.685 761.542 543.979 760.536 543.42 760.203 542.782 760.029 542.134 760.036M542.134 759.158C543.324 759.151 544.467 759.62 545.312 760.46 545.726 760.869 546.053 761.36 546.273 761.905 546.508 762.45 546.627 763.04 546.621 763.638 546.613 766.12 544.594 768.126 542.111 768.118 541.33 768.118 540.564 767.906 539.886 767.52 539.208 767.127 538.644 766.567 538.252 765.886 537.455 764.493 537.455 762.776 538.252 761.383 538.644 760.71 539.208 760.142 539.886 759.756 540.575 759.355 541.36 759.151 542.157 759.158" fill="#004387" transform="matrix(1.00469 0 0 1 621.477 -77.6357)"/><path d="M188.322 2.51237 194.701 2.51237 194.701 29.3387 188.322 29.3387Z" fill="#004387" transform="matrix(1.00469 0 0 1 933.331 661)"/><path d="M185.113 2.5275 157 2.5275 157 7.62791 167.882 7.62791 167.882 29.3387 174.269 29.3387 174.269 7.62791 185.113 7.62791 185.113 2.5275Z" fill="#004387" transform="matrix(1.00469 0 0 1 933.331 661)"/><path d="M445.718 759.643 445.718 757.153 462.987 757.153 462.987 752.022 445.718 752.022 445.718 746.279 464.258 746.279 464.258 741.171 439.301 741.171 439.301 759.158C439.309 764.024 443.251 767.967 448.117 767.974L464.235 767.974 464.235 762.874 448.942 762.874C447.166 762.897 445.709 761.474 445.688 759.696 445.688 759.681 445.688 759.658 445.688 759.643" fill="#004387" transform="matrix(1.00469 0 0 1 621.477 -77.6357)"/><path d="M426.565 751.818 420.193 750.917C417.166 750.494 414.699 750.04 414.699 748.405 414.699 746.544 418.135 745.696 421.23 745.696 427.329 745.696 428.752 748.186 428.752 748.186L436.138 748.186C435.541 746.271 434.328 744.609 432.687 743.456 430.046 741.617 426.436 740.626 421.374 740.626 417.174 740.626 413.897 741.337 411.635 742.73 409.402 743.978 408.023 746.339 408.033 748.897 408.033 752.983 411.604 755.503 418.438 756.381L424.885 757.214C428.275 757.569 430.076 758.545 430.076 760.051 430.076 762.004 427.443 763.351 423.364 763.351 417.953 763.351 416.024 760.997 415.592 760.324L408.025 760.324C408.694 762.397 410.023 764.198 411.809 765.447 414.745 767.581 418.279 768.474 423.16 768.474 427.496 768.474 430.871 767.717 433.186 766.204 435.435 764.773 436.765 762.269 436.69 759.605 436.69 755.291 433.459 752.794 426.512 751.818" fill="#004387" transform="matrix(1.00469 0 0 1 621.477 -77.6357)"/><path d="M530.654 741.148 530.654 757.963 515.451 744.538C513.514 742.858 511.955 741.148 509.223 741.148L508.315 741.148 508.315 767.982 513.431 767.982 513.431 751.258 528.513 764.584C530.435 766.257 532.047 767.982 534.786 767.982L535.77 767.982 535.77 741.148Z" fill="#004387" transform="matrix(1.00469 0 0 1 621.477 -77.6357)"/><path d="M97.6796 33.1753 99.0947 33.1753 99.0947 40.8411 97.6796 40.8411Z" fill="#868686" transform="matrix(1.00469 0 0 1 933.331 661)"/><path d="M430.863 778.062C430.076 779.068 428.865 779.651 427.587 779.643 425.382 779.742 423.517 778.031 423.421 775.822 423.325 773.62 425.034 771.758 427.239 771.66 427.355 771.652 427.471 771.652 427.587 771.66 428.864 771.645 430.075 772.227 430.863 773.234L429.69 774.112C429.222 773.408 428.431 772.992 427.587 772.999 426.124 772.999 424.938 774.187 424.938 775.648 424.938 777.108 426.124 778.296 427.587 778.296 428.424 778.304 429.215 777.91 429.713 777.237Z" fill="#868686" transform="matrix(1.00469 0 0 1 621.477 -77.6357)"/><path d="M437.961 778.296C439.424 778.311 440.62 777.131 440.633 775.67 440.645 774.21 439.47 773.014 438.007 772.999 436.544 772.984 435.348 774.164 435.336 775.625 435.336 775.633 435.336 775.64 435.336 775.648 435.344 777.101 436.511 778.273 437.961 778.296M437.961 771.66C440.167 771.728 441.901 773.567 441.834 775.776 441.767 777.978 439.925 779.711 437.719 779.651 435.559 779.583 433.842 777.812 433.845 775.648 433.852 773.438 435.65 771.652 437.862 771.66 437.895 771.66 437.928 771.66 437.961 771.66" fill="#868686" transform="matrix(1.00469 0 0 1 621.477 -77.6357)"/><path d="M447.231 775.723 449.358 775.723C450.066 775.814 450.717 775.322 450.812 774.611 450.906 773.9 450.408 773.249 449.7 773.158 449.586 773.143 449.471 773.143 449.358 773.158L447.231 773.158ZM445.816 771.819 449.464 771.819C450.872 771.705 452.106 772.757 452.218 774.164 452.226 774.255 452.228 774.346 452.226 774.437 452.205 775.519 451.475 776.457 450.432 776.745L452.347 779.484 450.561 779.484 448.964 777.063 447.231 777.063 447.231 779.484 445.816 779.484Z" fill="#868686" transform="matrix(1.00469 0 0 1 621.477 -77.6357)"/><path d="M457.349 775.723 459.475 775.723C460.184 775.814 460.835 775.322 460.929 774.611 461.024 773.9 460.526 773.249 459.818 773.158 459.704 773.143 459.589 773.143 459.475 773.158L457.349 773.158ZM455.934 771.819 459.589 771.819C461.037 771.743 462.274 772.855 462.352 774.301 462.43 775.746 461.319 776.987 459.87 777.063 459.777 777.07 459.683 777.07 459.589 777.063L457.319 777.063 457.319 779.484 455.934 779.484Z" fill="#868686" transform="matrix(1.00469 0 0 1 621.477 -77.6357)"/><path d="M469.268 778.296C470.73 778.311 471.93 777.138 471.946 775.678 471.963 774.217 470.791 773.014 469.328 772.999 467.865 772.984 466.666 774.157 466.649 775.617 466.649 775.625 466.649 775.64 466.649 775.648 466.658 777.093 467.82 778.273 469.268 778.296M469.268 771.66C471.474 771.72 473.211 773.559 473.148 775.769 473.085 777.971 471.246 779.711 469.041 779.651 466.876 779.583 465.156 777.812 465.159 775.648 465.171 773.43 466.975 771.645 469.19 771.66 469.216 771.66 469.242 771.66 469.268 771.66" fill="#868686" transform="matrix(1.00469 0 0 1 621.477 -77.6357)"/><path d="M478.53 775.723 480.649 775.723C481.357 775.814 482.008 775.322 482.103 774.611 482.197 773.9 481.699 773.249 480.991 773.158 480.877 773.143 480.762 773.143 480.649 773.158L478.53 773.158ZM477.115 771.819 480.762 771.819C482.171 771.705 483.404 772.757 483.517 774.164 483.525 774.255 483.527 774.346 483.525 774.437 483.503 775.519 482.769 776.457 481.724 776.745L483.646 779.484 481.86 779.484 480.263 777.063 478.53 777.063 478.53 779.484 477.115 779.484Z" fill="#868686" transform="matrix(1.00469 0 0 1 621.477 -77.6357)"/><path d="M498.311 778.137 500.135 778.137C501.51 778.243 502.712 777.214 502.819 775.844 502.926 774.467 501.898 773.264 500.523 773.158 500.394 773.15 500.264 773.15 500.135 773.158L498.311 773.158ZM496.896 771.819 500.135 771.819C502.253 771.675 504.089 773.271 504.235 775.39 504.241 775.474 504.244 775.564 504.244 775.648 504.223 777.789 502.467 779.515 500.323 779.492 500.261 779.492 500.198 779.484 500.135 779.484L496.896 779.484Z" fill="#868686" transform="matrix(1.00469 0 0 1 621.477 -77.6357)"/><path d="M511.388 778.296C512.85 778.311 514.05 777.138 514.066 775.678 514.083 774.217 512.911 773.014 511.448 772.999 509.985 772.984 508.786 774.157 508.769 775.617 508.769 775.625 508.769 775.64 508.769 775.648 508.778 777.093 509.94 778.273 511.388 778.296M511.388 771.66C513.594 771.72 515.331 773.559 515.268 775.769 515.205 777.971 513.367 779.711 511.161 779.651 508.996 779.583 507.276 777.812 507.279 775.648 507.291 773.43 509.095 771.645 511.31 771.66 511.336 771.66 511.362 771.66 511.388 771.66" fill="#868686" transform="matrix(1.00469 0 0 1 621.477 -77.6357)"/><path d="M520.635 775.723 522.754 775.723C523.462 775.814 524.113 775.322 524.208 774.611 524.302 773.9 523.804 773.249 523.096 773.158 522.982 773.143 522.867 773.143 522.754 773.158L520.635 773.158ZM519.22 771.819 522.905 771.819C524.309 771.705 525.539 772.749 525.653 774.157 525.66 774.248 525.663 774.346 525.66 774.437 525.641 775.519 524.911 776.457 523.866 776.745L525.788 779.484 524.002 779.484 522.406 777.063 520.635 777.063 520.635 779.484 519.22 779.484Z" fill="#868686" transform="matrix(1.00469 0 0 1 621.477 -77.6357)"/><path d="M418.846 771.819 418.846 777.032 415.403 772.787C415.043 772.197 414.402 771.826 413.708 771.819L413.277 771.819 413.277 779.439 414.692 779.439 414.692 774.354 418.127 778.614C418.518 779.159 419.155 779.469 419.822 779.439L420.254 779.439 420.254 771.834Z" fill="#868686" transform="matrix(1.00469 0 0 1 621.477 -77.6357)"/><path d="M490.986 776.768 489.889 774.021 488.769 776.768ZM489.473 771.811 490.365 771.811 493.582 779.484 492.068 779.484 491.493 778.039 488.269 778.039 487.687 779.484 486.173 779.484Z" fill="#868686" transform="matrix(1.00469 0 0 1 621.477 -77.6357)"/><path d="M533.106 776.768 532.001 774.021 530.889 776.768ZM531.592 771.811 532.448 771.811 535.664 779.484 534.15 779.484 533.575 778.039 530.351 778.039 529.769 779.484 528.255 779.484Z" fill="#868686" transform="matrix(1.00469 0 0 1 621.477 -77.6357)"/></g></g></svg>