<svg width="43" height="53" xmlns="http://www.w3.org/2000/svg" xmlns:xlink="http://www.w3.org/1999/xlink" xml:space="preserve" overflow="hidden"><defs><filter id="fx0" x="-10%" y="-10%" width="120%" height="120%" filterUnits="userSpaceOnUse" primitiveUnits="userSpaceOnUse"><feComponentTransfer color-interpolation-filters="sRGB"><feFuncR type="discrete" tableValues="0 0"/><feFuncG type="discrete" tableValues="0 0"/><feFuncB type="discrete" tableValues="0 0"/><feFuncA type="linear" slope="0.4" intercept="0"/></feComponentTransfer><feGaussianBlur stdDeviation="2.22222 2.22222"/></filter><clipPath id="clip1"><rect x="896" y="401" width="43" height="53"/></clipPath><clipPath id="clip2"><rect x="-4" y="-4" width="53" height="60"/></clipPath><clipPath id="clip3"><rect x="0" y="0" width="45" height="53"/></clipPath><clipPath id="clip4"><rect x="7" y="7" width="31" height="39"/></clipPath><clipPath id="clip5"><rect x="7" y="7" width="31" height="39"/></clipPath><clipPath id="clip6"><rect x="7" y="7" width="31" height="39"/></clipPath><clipPath id="clip7"><rect x="903" y="409" width="29" height="37"/></clipPath><clipPath id="clip8"><rect x="903" y="409" width="29" height="37"/></clipPath><clipPath id="clip9"><rect x="903" y="409" width="29" height="37"/></clipPath></defs><g clip-path="url(#clip1)" transform="translate(-896 -401)"><g clip-path="url(#clip2)" filter="url(#fx0)" transform="translate(895 401)"><g clip-path="url(#clip3)"><g clip-path="url(#clip4)"><g clip-path="url(#clip5)"><g clip-path="url(#clip6)"><path d="M791.814 546.324C783.776 546.324 777.26 552.84 777.26 560.878 777.26 568.922 791.814 584.064 791.814 584.064 791.814 584.064 806.376 568.922 806.376 560.878 806.371 552.839 799.853 546.324 791.814 546.324ZM791.814 566.808C788.839 566.803 786.43 564.386 786.435 561.411 786.441 558.436 788.857 556.027 791.832 556.033 794.804 556.038 797.21 558.449 797.21 561.42 797.21 564.395 794.798 566.808 791.823 566.808 791.82 566.808 791.816 566.808 791.814 566.808Z" fill="#FFFFFF" transform="matrix(1.00422 0 0 1 -772.662 -538.694)"/></g></g></g></g></g><g clip-path="url(#clip7)"><g clip-path="url(#clip8)"><g clip-path="url(#clip9)"><path d="M776.288 535.612C768.408 535.612 762.02 542 762.02 549.88 762.02 557.767 776.288 572.612 776.288 572.612 776.288 572.612 790.565 557.767 790.565 549.88 790.56 541.999 784.169 535.612 776.288 535.612ZM776.288 555.694C773.371 555.69 771.01 553.32 771.015 550.403 771.021 547.486 773.389 545.125 776.306 545.13 779.22 545.136 781.579 547.499 781.579 550.412 781.579 553.329 779.214 555.694 776.297 555.694 776.294 555.694 776.291 555.694 776.288 555.694Z" fill="#FFFFFF" transform="matrix(1.00422 0 0 1 137.929 -126.612)"/></g></g></g></g></svg>