<svg width="58" height="52" xmlns="http://www.w3.org/2000/svg" xmlns:xlink="http://www.w3.org/1999/xlink" xml:space="preserve" overflow="hidden"><defs><filter id="fx0" x="-10%" y="-10%" width="120%" height="120%" filterUnits="userSpaceOnUse" primitiveUnits="userSpaceOnUse"><feComponentTransfer color-interpolation-filters="sRGB"><feFuncR type="discrete" tableValues="0 0"/><feFuncG type="discrete" tableValues="0 0"/><feFuncB type="discrete" tableValues="0 0"/><feFuncA type="linear" slope="0.4" intercept="0"/></feComponentTransfer><feGaussianBlur stdDeviation="2.22222 2.22222"/></filter><clipPath id="clip1"><rect x="1160" y="399" width="58" height="52"/></clipPath><clipPath id="clip2"><rect x="-4" y="-4" width="66" height="60"/></clipPath><clipPath id="clip3"><rect x="0" y="0" width="58" height="52"/></clipPath><clipPath id="clip4"><rect x="7" y="7" width="44" height="38"/></clipPath><clipPath id="clip5"><rect x="7" y="7" width="44" height="38"/></clipPath><clipPath id="clip6"><rect x="7" y="7" width="44" height="38"/></clipPath><clipPath id="clip7"><rect x="1168" y="407" width="42" height="36"/></clipPath><clipPath id="clip8"><rect x="1168" y="407" width="42" height="36"/></clipPath><clipPath id="clip9"><rect x="1168" y="407" width="42" height="36"/></clipPath></defs><g clip-path="url(#clip1)" transform="translate(-1160 -399)"><g clip-path="url(#clip2)" filter="url(#fx0)" transform="translate(1160 399)"><g clip-path="url(#clip3)"><g clip-path="url(#clip4)"><g clip-path="url(#clip5)"><g clip-path="url(#clip6)"><path d="M780.135 780.956 780.135 759.029 748.137 759.029 748.137 787.477 786.067 787.477 786.067 784.221C782.508 778.288 780.135 780.956 780.135 780.956ZM775.398 782.142 754.435 782.142 754.435 764.364 774.212 764.364 774.212 766.737 766.041 766.737 766.041 772.089 769.752 772.089 769.752 774.453 759.939 774.453 759.939 772.089 763.659 772.089 763.659 766.737 756.79 766.737 756.79 779.769 761.803 779.769 761.803 776.808 764.167 776.808 764.167 779.769 773.088 779.769 773.088 770.242 775.461 770.242Z" fill="#FFFFFF" transform="matrix(1.06296 0 0 1 -787.662 -743.167)"/><path d="M788.431 781.848 788.431 755.309C788.431 755.309 788.431 749.841 782.508 751.028L782.508 778.583C782.508 778.583 784.881 775.916 788.431 781.848Z" fill="#FFFFFF" transform="matrix(1.06296 0 0 1 -787.662 -743.167)"/></g></g></g></g></g><g clip-path="url(#clip7)"><g clip-path="url(#clip8)"><g clip-path="url(#clip9)"><path d="M764.838 765.643 764.838 744.146 733.468 744.146 733.468 772.036 770.654 772.036 770.654 768.844C767.165 763.028 764.838 765.643 764.838 765.643ZM760.194 766.806 739.642 766.806 739.642 749.376 759.031 749.376 759.031 751.703 751.02 751.703 751.02 756.95 754.658 756.95 754.658 759.267 745.038 759.267 745.038 756.95 748.685 756.95 748.685 751.703 741.951 751.703 741.951 764.48 746.866 764.48 746.866 761.576 749.184 761.576 749.184 764.48 757.929 764.48 757.929 755.139 760.256 755.139Z" fill="#FFFFFF" transform="matrix(1.06296 0 0 1 388.351 -329.086)"/><path d="M772.971 766.517 772.971 740.499C772.971 740.499 772.971 735.138 767.165 736.302L767.165 763.316C767.165 763.316 769.491 760.702 772.971 766.517Z" fill="#FFFFFF" transform="matrix(1.06296 0 0 1 388.351 -329.086)"/></g></g></g></g></svg>