<svg width="36" height="42" xmlns="http://www.w3.org/2000/svg" xmlns:xlink="http://www.w3.org/1999/xlink" xml:space="preserve" overflow="hidden"><defs><filter id="fx0" x="-10%" y="-10%" width="120%" height="120%" filterUnits="userSpaceOnUse" primitiveUnits="userSpaceOnUse"><feComponentTransfer color-interpolation-filters="sRGB"><feFuncR type="discrete" tableValues="0 0"/><feFuncG type="discrete" tableValues="0 0"/><feFuncB type="discrete" tableValues="0 0"/><feFuncA type="linear" slope="0.4" intercept="0"/></feComponentTransfer><feGaussianBlur stdDeviation="2.22222 2.22222"/></filter><clipPath id="clip1"><rect x="812" y="408" width="36" height="42"/></clipPath><clipPath id="clip2"><rect x="-4" y="-4" width="46" height="51"/></clipPath><clipPath id="clip3"><rect x="0" y="0" width="38" height="44"/></clipPath><clipPath id="clip4"><rect x="7" y="7" width="24" height="30"/></clipPath><clipPath id="clip5"><rect x="7" y="7" width="24" height="30"/></clipPath><clipPath id="clip6"><rect x="7" y="7" width="24" height="30"/></clipPath><clipPath id="clip7"><rect x="819" y="415" width="22" height="28"/></clipPath><clipPath id="clip8"><rect x="819" y="415" width="22" height="28"/></clipPath><clipPath id="clip9"><rect x="819" y="415" width="22" height="28"/></clipPath></defs><g clip-path="url(#clip1)" transform="translate(-812 -408)"><g clip-path="url(#clip2)" filter="url(#fx0)" transform="translate(811 407)"><g clip-path="url(#clip3)"><g clip-path="url(#clip4)"><g clip-path="url(#clip5)"><g clip-path="url(#clip6)"><path d="M0 0 0 28.56 21.4009 14.4296 0 0Z" fill="#FFFFFF" transform="matrix(1.03917 0 0 1 7.88043 7.72)"/></g></g></g></g></g><g clip-path="url(#clip7)"><g clip-path="url(#clip8)"><g clip-path="url(#clip9)"><path d="M0 0 0 28 20.9812 14.1467 0 0Z" fill="#FFFFFF" transform="matrix(1.03917 0 0 1 819.098 415)"/></g></g></g></g></svg>